<?xml version="1.0" encoding="utf-8"?>
<svg xmlns="http://www.w3.org/2000/svg" xmlns:xlink="http://www.w3.org/1999/xlink" width="600" height="400" viewBox="0 0 2400 1600">
<defs>
  <clipPath id="clip720">
    <rect x="0" y="0" width="2400" height="1600"/>
  </clipPath>
</defs>
<path clip-path="url(#clip720)" d="M0 1600 L2400 1600 L2400 0 L0 0  Z" fill="#ffffff" fill-rule="evenodd" fill-opacity="1"/>
<defs>
  <clipPath id="clip721">
    <rect x="480" y="0" width="1681" height="1600"/>
  </clipPath>
</defs>
<path clip-path="url(#clip720)" d="M193.936 1486.45 L2352.76 1486.45 L2352.76 47.2441 L193.936 47.2441  Z" fill="#ffffff" fill-rule="evenodd" fill-opacity="1"/>
<defs>
  <clipPath id="clip722">
    <rect x="193" y="47" width="2160" height="1440"/>
  </clipPath>
</defs>
<polyline clip-path="url(#clip722)" style="stroke:#000000; stroke-linecap:round; stroke-linejoin:round; stroke-width:2; stroke-opacity:0.1; fill:none" points="255.035,1486.45 255.035,47.2441 "/>
<polyline clip-path="url(#clip722)" style="stroke:#000000; stroke-linecap:round; stroke-linejoin:round; stroke-width:2; stroke-opacity:0.1; fill:none" points="594.472,1486.45 594.472,47.2441 "/>
<polyline clip-path="url(#clip722)" style="stroke:#000000; stroke-linecap:round; stroke-linejoin:round; stroke-width:2; stroke-opacity:0.1; fill:none" points="933.909,1486.45 933.909,47.2441 "/>
<polyline clip-path="url(#clip722)" style="stroke:#000000; stroke-linecap:round; stroke-linejoin:round; stroke-width:2; stroke-opacity:0.1; fill:none" points="1273.35,1486.45 1273.35,47.2441 "/>
<polyline clip-path="url(#clip722)" style="stroke:#000000; stroke-linecap:round; stroke-linejoin:round; stroke-width:2; stroke-opacity:0.1; fill:none" points="1612.78,1486.45 1612.78,47.2441 "/>
<polyline clip-path="url(#clip722)" style="stroke:#000000; stroke-linecap:round; stroke-linejoin:round; stroke-width:2; stroke-opacity:0.1; fill:none" points="1952.22,1486.45 1952.22,47.2441 "/>
<polyline clip-path="url(#clip722)" style="stroke:#000000; stroke-linecap:round; stroke-linejoin:round; stroke-width:2; stroke-opacity:0.1; fill:none" points="2291.66,1486.45 2291.66,47.2441 "/>
<polyline clip-path="url(#clip720)" style="stroke:#000000; stroke-linecap:round; stroke-linejoin:round; stroke-width:4; stroke-opacity:1; fill:none" points="193.936,1486.45 2352.76,1486.45 "/>
<polyline clip-path="url(#clip720)" style="stroke:#000000; stroke-linecap:round; stroke-linejoin:round; stroke-width:4; stroke-opacity:1; fill:none" points="255.035,1486.45 255.035,1467.55 "/>
<polyline clip-path="url(#clip720)" style="stroke:#000000; stroke-linecap:round; stroke-linejoin:round; stroke-width:4; stroke-opacity:1; fill:none" points="594.472,1486.45 594.472,1467.55 "/>
<polyline clip-path="url(#clip720)" style="stroke:#000000; stroke-linecap:round; stroke-linejoin:round; stroke-width:4; stroke-opacity:1; fill:none" points="933.909,1486.45 933.909,1467.55 "/>
<polyline clip-path="url(#clip720)" style="stroke:#000000; stroke-linecap:round; stroke-linejoin:round; stroke-width:4; stroke-opacity:1; fill:none" points="1273.35,1486.45 1273.35,1467.55 "/>
<polyline clip-path="url(#clip720)" style="stroke:#000000; stroke-linecap:round; stroke-linejoin:round; stroke-width:4; stroke-opacity:1; fill:none" points="1612.78,1486.45 1612.78,1467.55 "/>
<polyline clip-path="url(#clip720)" style="stroke:#000000; stroke-linecap:round; stroke-linejoin:round; stroke-width:4; stroke-opacity:1; fill:none" points="1952.22,1486.45 1952.22,1467.55 "/>
<polyline clip-path="url(#clip720)" style="stroke:#000000; stroke-linecap:round; stroke-linejoin:round; stroke-width:4; stroke-opacity:1; fill:none" points="2291.66,1486.45 2291.66,1467.55 "/>
<path clip-path="url(#clip720)" d="M224.502 1532.02 L254.178 1532.02 L254.178 1535.95 L224.502 1535.95 L224.502 1532.02 Z" fill="#000000" fill-rule="nonzero" fill-opacity="1" /><path clip-path="url(#clip720)" d="M278.437 1530.21 Q281.794 1530.93 283.669 1533.2 Q285.567 1535.47 285.567 1538.8 Q285.567 1543.92 282.048 1546.72 Q278.53 1549.52 272.048 1549.52 Q269.873 1549.52 267.558 1549.08 Q265.266 1548.66 262.812 1547.81 L262.812 1543.29 Q264.757 1544.43 267.072 1545.01 Q269.386 1545.58 271.91 1545.58 Q276.308 1545.58 278.599 1543.85 Q280.914 1542.11 280.914 1538.8 Q280.914 1535.75 278.761 1534.03 Q276.632 1532.3 272.812 1532.3 L268.785 1532.3 L268.785 1528.45 L272.998 1528.45 Q276.447 1528.45 278.275 1527.09 Q280.104 1525.7 280.104 1523.11 Q280.104 1520.45 278.206 1519.03 Q276.331 1517.6 272.812 1517.6 Q270.891 1517.6 268.692 1518.01 Q266.493 1518.43 263.854 1519.31 L263.854 1515.14 Q266.516 1514.4 268.831 1514.03 Q271.169 1513.66 273.229 1513.66 Q278.553 1513.66 281.655 1516.09 Q284.757 1518.5 284.757 1522.62 Q284.757 1525.49 283.113 1527.48 Q281.47 1529.45 278.437 1530.21 Z" fill="#000000" fill-rule="nonzero" fill-opacity="1" /><path clip-path="url(#clip720)" d="M564.414 1532.02 L594.09 1532.02 L594.09 1535.95 L564.414 1535.95 L564.414 1532.02 Z" fill="#000000" fill-rule="nonzero" fill-opacity="1" /><path clip-path="url(#clip720)" d="M608.21 1544.91 L624.529 1544.91 L624.529 1548.85 L602.585 1548.85 L602.585 1544.91 Q605.247 1542.16 609.83 1537.53 Q614.437 1532.88 615.617 1531.53 Q617.863 1529.01 618.742 1527.27 Q619.645 1525.51 619.645 1523.82 Q619.645 1521.07 617.701 1519.33 Q615.78 1517.6 612.678 1517.6 Q610.479 1517.6 608.025 1518.36 Q605.594 1519.13 602.817 1520.68 L602.817 1515.95 Q605.641 1514.82 608.094 1514.24 Q610.548 1513.66 612.585 1513.66 Q617.955 1513.66 621.15 1516.35 Q624.344 1519.03 624.344 1523.52 Q624.344 1525.65 623.534 1527.57 Q622.747 1529.47 620.641 1532.07 Q620.062 1532.74 616.96 1535.95 Q613.858 1539.15 608.21 1544.91 Z" fill="#000000" fill-rule="nonzero" fill-opacity="1" /><path clip-path="url(#clip720)" d="M903.666 1532.02 L933.342 1532.02 L933.342 1535.95 L903.666 1535.95 L903.666 1532.02 Z" fill="#000000" fill-rule="nonzero" fill-opacity="1" /><path clip-path="url(#clip720)" d="M944.244 1544.91 L951.883 1544.91 L951.883 1518.55 L943.573 1520.21 L943.573 1515.95 L951.837 1514.29 L956.513 1514.29 L956.513 1544.91 L964.152 1544.91 L964.152 1548.85 L944.244 1548.85 L944.244 1544.91 Z" fill="#000000" fill-rule="nonzero" fill-opacity="1" /><path clip-path="url(#clip720)" d="M1273.35 1517.37 Q1269.73 1517.37 1267.91 1520.93 Q1266.1 1524.47 1266.1 1531.6 Q1266.1 1538.71 1267.91 1542.27 Q1269.73 1545.82 1273.35 1545.82 Q1276.98 1545.82 1278.79 1542.27 Q1280.61 1538.71 1280.61 1531.6 Q1280.61 1524.47 1278.79 1520.93 Q1276.98 1517.37 1273.35 1517.37 M1273.35 1513.66 Q1279.16 1513.66 1282.21 1518.27 Q1285.29 1522.85 1285.29 1531.6 Q1285.29 1540.33 1282.21 1544.94 Q1279.16 1549.52 1273.35 1549.52 Q1267.54 1549.52 1264.46 1544.94 Q1261.4 1540.33 1261.4 1531.6 Q1261.4 1522.85 1264.46 1518.27 Q1267.54 1513.66 1273.35 1513.66 Z" fill="#000000" fill-rule="nonzero" fill-opacity="1" /><path clip-path="url(#clip720)" d="M1603.17 1544.91 L1610.8 1544.91 L1610.8 1518.55 L1602.49 1520.21 L1602.49 1515.95 L1610.76 1514.29 L1615.43 1514.29 L1615.43 1544.91 L1623.07 1544.91 L1623.07 1548.85 L1603.17 1548.85 L1603.17 1544.91 Z" fill="#000000" fill-rule="nonzero" fill-opacity="1" /><path clip-path="url(#clip720)" d="M1946.87 1544.91 L1963.19 1544.91 L1963.19 1548.85 L1941.25 1548.85 L1941.25 1544.91 Q1943.91 1542.16 1948.49 1537.53 Q1953.1 1532.88 1954.28 1531.53 Q1956.53 1529.01 1957.41 1527.27 Q1958.31 1525.51 1958.31 1523.82 Q1958.31 1521.07 1956.36 1519.33 Q1954.44 1517.6 1951.34 1517.6 Q1949.14 1517.6 1946.69 1518.36 Q1944.26 1519.13 1941.48 1520.68 L1941.48 1515.95 Q1944.3 1514.82 1946.76 1514.24 Q1949.21 1513.66 1951.25 1513.66 Q1956.62 1513.66 1959.81 1516.35 Q1963.01 1519.03 1963.01 1523.52 Q1963.01 1525.65 1962.2 1527.57 Q1961.41 1529.47 1959.3 1532.07 Q1958.72 1532.74 1955.62 1535.95 Q1952.52 1539.15 1946.87 1544.91 Z" fill="#000000" fill-rule="nonzero" fill-opacity="1" /><path clip-path="url(#clip720)" d="M2295.9 1530.21 Q2299.26 1530.93 2301.14 1533.2 Q2303.03 1535.47 2303.03 1538.8 Q2303.03 1543.92 2299.52 1546.72 Q2296 1549.52 2289.52 1549.52 Q2287.34 1549.52 2285.03 1549.08 Q2282.73 1548.66 2280.28 1547.81 L2280.28 1543.29 Q2282.22 1544.43 2284.54 1545.01 Q2286.85 1545.58 2289.38 1545.58 Q2293.78 1545.58 2296.07 1543.85 Q2298.38 1542.11 2298.38 1538.8 Q2298.38 1535.75 2296.23 1534.03 Q2294.1 1532.3 2290.28 1532.3 L2286.25 1532.3 L2286.25 1528.45 L2290.47 1528.45 Q2293.91 1528.45 2295.74 1527.09 Q2297.57 1525.7 2297.57 1523.11 Q2297.57 1520.45 2295.67 1519.03 Q2293.8 1517.6 2290.28 1517.6 Q2288.36 1517.6 2286.16 1518.01 Q2283.96 1518.43 2281.32 1519.31 L2281.32 1515.14 Q2283.98 1514.4 2286.3 1514.03 Q2288.64 1513.66 2290.7 1513.66 Q2296.02 1513.66 2299.12 1516.09 Q2302.22 1518.5 2302.22 1522.62 Q2302.22 1525.49 2300.58 1527.48 Q2298.94 1529.45 2295.9 1530.21 Z" fill="#000000" fill-rule="nonzero" fill-opacity="1" /><polyline clip-path="url(#clip722)" style="stroke:#000000; stroke-linecap:round; stroke-linejoin:round; stroke-width:2; stroke-opacity:0.1; fill:none" points="193.936,1246.8 2352.76,1246.8 "/>
<polyline clip-path="url(#clip722)" style="stroke:#000000; stroke-linecap:round; stroke-linejoin:round; stroke-width:2; stroke-opacity:0.1; fill:none" points="193.936,969.155 2352.76,969.155 "/>
<polyline clip-path="url(#clip722)" style="stroke:#000000; stroke-linecap:round; stroke-linejoin:round; stroke-width:2; stroke-opacity:0.1; fill:none" points="193.936,691.508 2352.76,691.508 "/>
<polyline clip-path="url(#clip722)" style="stroke:#000000; stroke-linecap:round; stroke-linejoin:round; stroke-width:2; stroke-opacity:0.1; fill:none" points="193.936,413.861 2352.76,413.861 "/>
<polyline clip-path="url(#clip722)" style="stroke:#000000; stroke-linecap:round; stroke-linejoin:round; stroke-width:2; stroke-opacity:0.1; fill:none" points="193.936,136.213 2352.76,136.213 "/>
<polyline clip-path="url(#clip720)" style="stroke:#000000; stroke-linecap:round; stroke-linejoin:round; stroke-width:4; stroke-opacity:1; fill:none" points="193.936,1486.45 193.936,47.2441 "/>
<polyline clip-path="url(#clip720)" style="stroke:#000000; stroke-linecap:round; stroke-linejoin:round; stroke-width:4; stroke-opacity:1; fill:none" points="193.936,1246.8 212.834,1246.8 "/>
<polyline clip-path="url(#clip720)" style="stroke:#000000; stroke-linecap:round; stroke-linejoin:round; stroke-width:4; stroke-opacity:1; fill:none" points="193.936,969.155 212.834,969.155 "/>
<polyline clip-path="url(#clip720)" style="stroke:#000000; stroke-linecap:round; stroke-linejoin:round; stroke-width:4; stroke-opacity:1; fill:none" points="193.936,691.508 212.834,691.508 "/>
<polyline clip-path="url(#clip720)" style="stroke:#000000; stroke-linecap:round; stroke-linejoin:round; stroke-width:4; stroke-opacity:1; fill:none" points="193.936,413.861 212.834,413.861 "/>
<polyline clip-path="url(#clip720)" style="stroke:#000000; stroke-linecap:round; stroke-linejoin:round; stroke-width:4; stroke-opacity:1; fill:none" points="193.936,136.213 212.834,136.213 "/>
<path clip-path="url(#clip720)" d="M50.9921 1247.25 L80.6679 1247.25 L80.6679 1251.19 L50.9921 1251.19 L50.9921 1247.25 Z" fill="#000000" fill-rule="nonzero" fill-opacity="1" /><path clip-path="url(#clip720)" d="M91.5706 1260.15 L99.2095 1260.15 L99.2095 1233.78 L90.8993 1235.45 L90.8993 1231.19 L99.1632 1229.52 L103.839 1229.52 L103.839 1260.15 L111.478 1260.15 L111.478 1264.08 L91.5706 1264.08 L91.5706 1260.15 Z" fill="#000000" fill-rule="nonzero" fill-opacity="1" /><path clip-path="url(#clip720)" d="M120.922 1258.2 L125.807 1258.2 L125.807 1264.08 L120.922 1264.08 L120.922 1258.2 Z" fill="#000000" fill-rule="nonzero" fill-opacity="1" /><path clip-path="url(#clip720)" d="M145.992 1232.6 Q142.381 1232.6 140.552 1236.17 Q138.746 1239.71 138.746 1246.84 Q138.746 1253.94 140.552 1257.51 Q142.381 1261.05 145.992 1261.05 Q149.626 1261.05 151.431 1257.51 Q153.26 1253.94 153.26 1246.84 Q153.26 1239.71 151.431 1236.17 Q149.626 1232.6 145.992 1232.6 M145.992 1228.9 Q151.802 1228.9 154.857 1233.5 Q157.936 1238.09 157.936 1246.84 Q157.936 1255.56 154.857 1260.17 Q151.802 1264.75 145.992 1264.75 Q140.181 1264.75 137.103 1260.17 Q134.047 1255.56 134.047 1246.84 Q134.047 1238.09 137.103 1233.5 Q140.181 1228.9 145.992 1228.9 Z" fill="#000000" fill-rule="nonzero" fill-opacity="1" /><path clip-path="url(#clip720)" d="M51.9875 969.607 L81.6633 969.607 L81.6633 973.542 L51.9875 973.542 L51.9875 969.607 Z" fill="#000000" fill-rule="nonzero" fill-opacity="1" /><path clip-path="url(#clip720)" d="M101.756 954.954 Q98.1447 954.954 96.316 958.519 Q94.5104 962.061 94.5104 969.19 Q94.5104 976.297 96.316 979.861 Q98.1447 983.403 101.756 983.403 Q105.39 983.403 107.196 979.861 Q109.024 976.297 109.024 969.19 Q109.024 962.061 107.196 958.519 Q105.39 954.954 101.756 954.954 M101.756 951.25 Q107.566 951.25 110.621 955.857 Q113.7 960.44 113.7 969.19 Q113.7 977.917 110.621 982.523 Q107.566 987.107 101.756 987.107 Q95.9456 987.107 92.8669 982.523 Q89.8114 977.917 89.8114 969.19 Q89.8114 960.44 92.8669 955.857 Q95.9456 951.25 101.756 951.25 Z" fill="#000000" fill-rule="nonzero" fill-opacity="1" /><path clip-path="url(#clip720)" d="M121.918 980.556 L126.802 980.556 L126.802 986.435 L121.918 986.435 L121.918 980.556 Z" fill="#000000" fill-rule="nonzero" fill-opacity="1" /><path clip-path="url(#clip720)" d="M137.033 951.875 L155.39 951.875 L155.39 955.811 L141.316 955.811 L141.316 964.283 Q142.334 963.936 143.353 963.773 Q144.371 963.588 145.39 963.588 Q151.177 963.588 154.556 966.76 Q157.936 969.931 157.936 975.347 Q157.936 980.926 154.464 984.028 Q150.992 987.107 144.672 987.107 Q142.496 987.107 140.228 986.736 Q137.982 986.366 135.575 985.625 L135.575 980.926 Q137.658 982.06 139.881 982.616 Q142.103 983.172 144.58 983.172 Q148.584 983.172 150.922 981.065 Q153.26 978.959 153.26 975.347 Q153.26 971.736 150.922 969.63 Q148.584 967.523 144.58 967.523 Q142.705 967.523 140.83 967.94 Q138.978 968.357 137.033 969.236 L137.033 951.875 Z" fill="#000000" fill-rule="nonzero" fill-opacity="1" /><path clip-path="url(#clip720)" d="M100.76 677.307 Q97.1493 677.307 95.3206 680.872 Q93.515 684.413 93.515 691.543 Q93.515 698.649 95.3206 702.214 Q97.1493 705.756 100.76 705.756 Q104.395 705.756 106.2 702.214 Q108.029 698.649 108.029 691.543 Q108.029 684.413 106.2 680.872 Q104.395 677.307 100.76 677.307 M100.76 673.603 Q106.571 673.603 109.626 678.21 Q112.705 682.793 112.705 691.543 Q112.705 700.27 109.626 704.876 Q106.571 709.459 100.76 709.459 Q94.9502 709.459 91.8715 704.876 Q88.816 700.27 88.816 691.543 Q88.816 682.793 91.8715 678.21 Q94.9502 673.603 100.76 673.603 Z" fill="#000000" fill-rule="nonzero" fill-opacity="1" /><path clip-path="url(#clip720)" d="M120.922 702.908 L125.807 702.908 L125.807 708.788 L120.922 708.788 L120.922 702.908 Z" fill="#000000" fill-rule="nonzero" fill-opacity="1" /><path clip-path="url(#clip720)" d="M145.992 677.307 Q142.381 677.307 140.552 680.872 Q138.746 684.413 138.746 691.543 Q138.746 698.649 140.552 702.214 Q142.381 705.756 145.992 705.756 Q149.626 705.756 151.431 702.214 Q153.26 698.649 153.26 691.543 Q153.26 684.413 151.431 680.872 Q149.626 677.307 145.992 677.307 M145.992 673.603 Q151.802 673.603 154.857 678.21 Q157.936 682.793 157.936 691.543 Q157.936 700.27 154.857 704.876 Q151.802 709.459 145.992 709.459 Q140.181 709.459 137.103 704.876 Q134.047 700.27 134.047 691.543 Q134.047 682.793 137.103 678.21 Q140.181 673.603 145.992 673.603 Z" fill="#000000" fill-rule="nonzero" fill-opacity="1" /><path clip-path="url(#clip720)" d="M101.756 399.659 Q98.1447 399.659 96.316 403.224 Q94.5104 406.766 94.5104 413.895 Q94.5104 421.002 96.316 424.567 Q98.1447 428.108 101.756 428.108 Q105.39 428.108 107.196 424.567 Q109.024 421.002 109.024 413.895 Q109.024 406.766 107.196 403.224 Q105.39 399.659 101.756 399.659 M101.756 395.956 Q107.566 395.956 110.621 400.562 Q113.7 405.146 113.7 413.895 Q113.7 422.622 110.621 427.229 Q107.566 431.812 101.756 431.812 Q95.9456 431.812 92.8669 427.229 Q89.8114 422.622 89.8114 413.895 Q89.8114 405.146 92.8669 400.562 Q95.9456 395.956 101.756 395.956 Z" fill="#000000" fill-rule="nonzero" fill-opacity="1" /><path clip-path="url(#clip720)" d="M121.918 425.261 L126.802 425.261 L126.802 431.141 L121.918 431.141 L121.918 425.261 Z" fill="#000000" fill-rule="nonzero" fill-opacity="1" /><path clip-path="url(#clip720)" d="M137.033 396.581 L155.39 396.581 L155.39 400.516 L141.316 400.516 L141.316 408.988 Q142.334 408.641 143.353 408.479 Q144.371 408.294 145.39 408.294 Q151.177 408.294 154.556 411.465 Q157.936 414.636 157.936 420.053 Q157.936 425.632 154.464 428.733 Q150.992 431.812 144.672 431.812 Q142.496 431.812 140.228 431.442 Q137.982 431.071 135.575 430.331 L135.575 425.632 Q137.658 426.766 139.881 427.321 Q142.103 427.877 144.58 427.877 Q148.584 427.877 150.922 425.77 Q153.26 423.664 153.26 420.053 Q153.26 416.442 150.922 414.335 Q148.584 412.229 144.58 412.229 Q142.705 412.229 140.83 412.645 Q138.978 413.062 137.033 413.942 L137.033 396.581 Z" fill="#000000" fill-rule="nonzero" fill-opacity="1" /><path clip-path="url(#clip720)" d="M91.5706 149.558 L99.2095 149.558 L99.2095 123.193 L90.8993 124.859 L90.8993 120.6 L99.1632 118.933 L103.839 118.933 L103.839 149.558 L111.478 149.558 L111.478 153.493 L91.5706 153.493 L91.5706 149.558 Z" fill="#000000" fill-rule="nonzero" fill-opacity="1" /><path clip-path="url(#clip720)" d="M120.922 147.614 L125.807 147.614 L125.807 153.493 L120.922 153.493 L120.922 147.614 Z" fill="#000000" fill-rule="nonzero" fill-opacity="1" /><path clip-path="url(#clip720)" d="M145.992 122.012 Q142.381 122.012 140.552 125.577 Q138.746 129.119 138.746 136.248 Q138.746 143.355 140.552 146.919 Q142.381 150.461 145.992 150.461 Q149.626 150.461 151.431 146.919 Q153.26 143.355 153.26 136.248 Q153.26 129.119 151.431 125.577 Q149.626 122.012 145.992 122.012 M145.992 118.308 Q151.802 118.308 154.857 122.915 Q157.936 127.498 157.936 136.248 Q157.936 144.975 154.857 149.581 Q151.802 154.165 145.992 154.165 Q140.181 154.165 137.103 149.581 Q134.047 144.975 134.047 136.248 Q134.047 127.498 137.103 122.915 Q140.181 118.308 145.992 118.308 Z" fill="#000000" fill-rule="nonzero" fill-opacity="1" /><polyline clip-path="url(#clip722)" style="stroke:#009af9; stroke-linecap:round; stroke-linejoin:round; stroke-width:10; stroke-opacity:1; fill:none" points="255.035,1241.25 296.598,1227.56 338.162,1205.84 379.726,1176.43 421.29,1139.75 462.853,1096.36 504.417,1046.9 545.981,992.126 587.544,932.848 629.108,869.956 670.672,804.392 712.236,737.138 753.799,669.2 795.363,601.596 836.927,535.339 878.491,471.421 920.054,410.798 961.618,354.379 1003.18,303.008 1044.75,257.455 1086.31,218.402 1127.87,186.434 1169.44,162.03 1211,145.554 1252.56,137.254 1294.13,137.254 1335.69,145.554 1377.26,162.03 1418.82,186.434 1460.38,218.402 1501.95,257.455 1543.51,303.008 1585.07,354.379 1626.64,410.798 1668.2,471.421 1709.77,535.339 1751.33,601.596 1792.89,669.2 1834.46,737.138 1876.02,804.392 1917.58,869.956 1959.15,932.848 2000.71,992.126 2042.27,1046.9 2083.84,1096.36 2125.4,1139.75 2166.97,1176.43 2208.53,1205.84 2250.09,1227.56 2291.66,1241.25 "/>
<path clip-path="url(#clip722)" d="M255.035 1421.53 L296.598 1378.56 L338.162 1331.61 L379.726 1295.42 L421.29 1258.65 L462.853 1204.75 L504.417 1133.94 L545.981 1052.26 L587.544 967.381 L629.108 885.93 L670.672 809.753 L712.236 736.697 L753.799 665.428 L795.363 596.93 L836.927 533.653 L878.491 478.044 L920.054 431.098 L961.618 392.058 L1003.18 359.301 L1044.75 331.112 L1086.31 305.887 L1127.87 282.105 L1169.44 258.435 L1211 234.147 L1252.56 209.707 L1294.13 187.127 L1335.69 169.859 L1377.26 162.23 L1418.82 168.507 L1460.38 191.782 L1501.95 233.032 L1543.51 290.802 L1585.07 361.646 L1626.64 441.028 L1668.2 524.172 L1709.77 606.326 L1751.33 682.742 L1792.89 749.503 L1834.46 805.115 L1876.02 851.703 L1917.58 895.265 L1959.15 943.354 L2000.71 999.379 L2042.27 1061 L2083.84 1123.31 L2125.4 1181.18 L2166.97 1233.44 L2208.53 1294.19 L2250.09 1371.19 L2291.66 1445.72 L2291.66 1171.81 L2250.09 1203.4 L2208.53 1198.32 L2166.97 1149.52 L2125.4 1077.66 L2083.84 1008.75 L2042.27 950.716 L2000.71 903.309 L1959.15 861.782 L1917.58 819.688 L1876.02 773.399 L1834.46 722.429 L1792.89 665.874 L1751.33 601.976 L1709.77 529.586 L1668.2 449.667 L1626.64 366.18 L1585.07 285.404 L1543.51 213.906 L1501.95 156.758 L1460.38 116.73 L1418.82 94.2805 L1377.26 87.9763 L1335.69 95.0208 L1294.13 111.773 L1252.56 134.354 L1211 159.309 L1169.44 184.181 L1127.87 207.879 L1086.31 230.835 L1044.75 254.838 L1003.18 282.406 L961.618 315.816 L920.054 356.25 L878.491 403.539 L836.927 456.913 L795.363 516.163 L753.799 581.798 L712.236 654.011 L670.672 731.449 L629.108 810.353 L587.544 885.808 L545.981 956.195 L504.417 1023.66 L462.853 1090.19 L421.29 1155.13 L379.726 1211.49 L338.162 1235.74 L296.598 1210.76 L255.035 1147.63  Z" fill="#e26f46" fill-rule="evenodd" fill-opacity="0.5"/>
<polyline clip-path="url(#clip722)" style="stroke:#e26f46; stroke-linecap:round; stroke-linejoin:round; stroke-width:10; stroke-opacity:1; fill:none" points="255.035,1284.58 296.598,1294.66 338.162,1283.67 379.726,1253.46 421.29,1206.89 462.853,1147.47 504.417,1078.8 545.981,1004.23 587.544,926.594 629.108,848.141 670.672,770.601 712.236,695.354 753.799,623.613 795.363,556.546 836.927,495.283 878.491,440.792 920.054,393.674 961.618,353.937 1003.18,320.853 1044.75,292.975 1086.31,268.361 1127.87,244.992 1169.44,221.308 1211,196.728 1252.56,172.03 1294.13,149.45 1335.69,132.44 1377.26,125.103 1418.82,131.394 1460.38,154.256 1501.95,194.895 1543.51,252.354 1585.07,323.525 1626.64,403.604 1668.2,486.919 1709.77,567.956 1751.33,642.359 1792.89,707.689 1834.46,763.772 1876.02,812.551 1917.58,857.477 1959.15,902.568 2000.71,951.344 2042.27,1005.86 2083.84,1066.03 2125.4,1129.42 2166.97,1191.48 2208.53,1246.25 2250.09,1287.29 2291.66,1308.76 "/>
<path clip-path="url(#clip720)" d="M1971.42 250.738 L2280.8 250.738 L2280.8 95.2176 L1971.42 95.2176  Z" fill="#ffffff" fill-rule="evenodd" fill-opacity="1"/>
<polyline clip-path="url(#clip720)" style="stroke:#000000; stroke-linecap:round; stroke-linejoin:round; stroke-width:4; stroke-opacity:1; fill:none" points="1971.42,250.738 2280.8,250.738 2280.8,95.2176 1971.42,95.2176 1971.42,250.738 "/>
<polyline clip-path="url(#clip720)" style="stroke:#009af9; stroke-linecap:round; stroke-linejoin:round; stroke-width:10; stroke-opacity:1; fill:none" points="1995.41,147.058 2139.33,147.058 "/>
<path clip-path="url(#clip720)" d="M2170.72 131.051 L2170.72 138.412 L2179.49 138.412 L2179.49 141.722 L2170.72 141.722 L2170.72 155.796 Q2170.72 158.967 2171.58 159.87 Q2172.46 160.773 2175.12 160.773 L2179.49 160.773 L2179.49 164.338 L2175.12 164.338 Q2170.19 164.338 2168.31 162.509 Q2166.44 160.657 2166.44 155.796 L2166.44 141.722 L2163.31 141.722 L2163.31 138.412 L2166.44 138.412 L2166.44 131.051 L2170.72 131.051 Z" fill="#000000" fill-rule="nonzero" fill-opacity="1" /><path clip-path="url(#clip720)" d="M2200.12 142.393 Q2199.4 141.977 2198.54 141.791 Q2197.71 141.583 2196.69 141.583 Q2193.08 141.583 2191.14 143.944 Q2189.22 146.282 2189.22 150.68 L2189.22 164.338 L2184.93 164.338 L2184.93 138.412 L2189.22 138.412 L2189.22 142.44 Q2190.56 140.078 2192.71 138.944 Q2194.86 137.787 2197.94 137.787 Q2198.38 137.787 2198.92 137.856 Q2199.45 137.903 2200.1 138.018 L2200.12 142.393 Z" fill="#000000" fill-rule="nonzero" fill-opacity="1" /><path clip-path="url(#clip720)" d="M2204.15 154.106 L2204.15 138.412 L2208.41 138.412 L2208.41 153.944 Q2208.41 157.625 2209.84 159.476 Q2211.28 161.305 2214.15 161.305 Q2217.6 161.305 2219.59 159.106 Q2221.6 156.907 2221.6 153.111 L2221.6 138.412 L2225.86 138.412 L2225.86 164.338 L2221.6 164.338 L2221.6 160.356 Q2220.05 162.717 2217.99 163.875 Q2215.95 165.009 2213.24 165.009 Q2208.78 165.009 2206.46 162.231 Q2204.15 159.453 2204.15 154.106 M2214.86 137.787 L2214.86 137.787 Z" fill="#000000" fill-rule="nonzero" fill-opacity="1" /><path clip-path="url(#clip720)" d="M2256.81 150.31 L2256.81 152.393 L2237.23 152.393 Q2237.5 156.791 2239.86 159.106 Q2242.25 161.398 2246.48 161.398 Q2248.94 161.398 2251.23 160.796 Q2253.54 160.194 2255.81 158.99 L2255.81 163.018 Q2253.52 163.99 2251.11 164.5 Q2248.71 165.009 2246.23 165.009 Q2240.03 165.009 2236.39 161.398 Q2232.78 157.787 2232.78 151.629 Q2232.78 145.264 2236.21 141.537 Q2239.66 137.787 2245.49 137.787 Q2250.72 137.787 2253.75 141.166 Q2256.81 144.523 2256.81 150.31 M2252.55 149.06 Q2252.5 145.565 2250.58 143.481 Q2248.68 141.398 2245.54 141.398 Q2241.97 141.398 2239.82 143.412 Q2237.69 145.426 2237.36 149.083 L2252.55 149.06 Z" fill="#000000" fill-rule="nonzero" fill-opacity="1" /><polyline clip-path="url(#clip720)" style="stroke:#e26f46; stroke-linecap:round; stroke-linejoin:round; stroke-width:10; stroke-opacity:1; fill:none" points="1995.41,198.898 2139.33,198.898 "/>
<path clip-path="url(#clip720)" d="M2188.87 211.247 L2188.87 201.965 L2181.23 201.965 L2181.23 198.122 L2193.5 198.122 L2193.5 212.96 Q2190.79 214.881 2187.53 215.877 Q2184.26 216.849 2180.56 216.849 Q2172.46 216.849 2167.87 212.127 Q2163.31 207.381 2163.31 198.932 Q2163.31 190.46 2167.87 185.738 Q2172.46 180.993 2180.56 180.993 Q2183.94 180.993 2186.97 181.826 Q2190.03 182.659 2192.6 184.28 L2192.6 189.256 Q2190 187.057 2187.09 185.946 Q2184.17 184.835 2180.95 184.835 Q2174.61 184.835 2171.42 188.377 Q2168.24 191.918 2168.24 198.932 Q2168.24 205.923 2171.42 209.465 Q2174.61 213.006 2180.95 213.006 Q2183.43 213.006 2185.37 212.59 Q2187.32 212.15 2188.87 211.247 Z" fill="#000000" fill-rule="nonzero" fill-opacity="1" /><path clip-path="url(#clip720)" d="M2206.72 185.46 L2206.72 198.446 L2212.6 198.446 Q2215.86 198.446 2217.64 196.756 Q2219.42 195.067 2219.42 191.942 Q2219.42 188.84 2217.64 187.15 Q2215.86 185.46 2212.6 185.46 L2206.72 185.46 M2202.04 181.618 L2212.6 181.618 Q2218.41 181.618 2221.37 184.256 Q2224.35 186.872 2224.35 191.942 Q2224.35 197.057 2221.37 199.673 Q2218.41 202.289 2212.6 202.289 L2206.72 202.289 L2206.72 216.178 L2202.04 216.178 L2202.04 181.618 Z" fill="#000000" fill-rule="nonzero" fill-opacity="1" /></svg>
