<?xml version="1.0" encoding="utf-8"?>
<svg xmlns="http://www.w3.org/2000/svg" xmlns:xlink="http://www.w3.org/1999/xlink" width="600" height="400" viewBox="0 0 2400 1600">
<defs>
  <clipPath id="clip660">
    <rect x="0" y="0" width="2400" height="1600"/>
  </clipPath>
</defs>
<path clip-path="url(#clip660)" d="M0 1600 L2400 1600 L2400 0 L0 0  Z" fill="#ffffff" fill-rule="evenodd" fill-opacity="1"/>
<defs>
  <clipPath id="clip661">
    <rect x="480" y="0" width="1681" height="1600"/>
  </clipPath>
</defs>
<path clip-path="url(#clip660)" d="M193.936 1486.45 L2352.76 1486.45 L2352.76 47.2441 L193.936 47.2441  Z" fill="#ffffff" fill-rule="evenodd" fill-opacity="1"/>
<defs>
  <clipPath id="clip662">
    <rect x="193" y="47" width="2160" height="1440"/>
  </clipPath>
</defs>
<polyline clip-path="url(#clip662)" style="stroke:#000000; stroke-linecap:round; stroke-linejoin:round; stroke-width:2; stroke-opacity:0.1; fill:none" points="255.035,1486.45 255.035,47.2441 "/>
<polyline clip-path="url(#clip662)" style="stroke:#000000; stroke-linecap:round; stroke-linejoin:round; stroke-width:2; stroke-opacity:0.1; fill:none" points="594.472,1486.45 594.472,47.2441 "/>
<polyline clip-path="url(#clip662)" style="stroke:#000000; stroke-linecap:round; stroke-linejoin:round; stroke-width:2; stroke-opacity:0.1; fill:none" points="933.909,1486.45 933.909,47.2441 "/>
<polyline clip-path="url(#clip662)" style="stroke:#000000; stroke-linecap:round; stroke-linejoin:round; stroke-width:2; stroke-opacity:0.1; fill:none" points="1273.35,1486.45 1273.35,47.2441 "/>
<polyline clip-path="url(#clip662)" style="stroke:#000000; stroke-linecap:round; stroke-linejoin:round; stroke-width:2; stroke-opacity:0.1; fill:none" points="1612.78,1486.45 1612.78,47.2441 "/>
<polyline clip-path="url(#clip662)" style="stroke:#000000; stroke-linecap:round; stroke-linejoin:round; stroke-width:2; stroke-opacity:0.1; fill:none" points="1952.22,1486.45 1952.22,47.2441 "/>
<polyline clip-path="url(#clip662)" style="stroke:#000000; stroke-linecap:round; stroke-linejoin:round; stroke-width:2; stroke-opacity:0.1; fill:none" points="2291.66,1486.45 2291.66,47.2441 "/>
<polyline clip-path="url(#clip660)" style="stroke:#000000; stroke-linecap:round; stroke-linejoin:round; stroke-width:4; stroke-opacity:1; fill:none" points="193.936,1486.45 2352.76,1486.45 "/>
<polyline clip-path="url(#clip660)" style="stroke:#000000; stroke-linecap:round; stroke-linejoin:round; stroke-width:4; stroke-opacity:1; fill:none" points="255.035,1486.45 255.035,1467.55 "/>
<polyline clip-path="url(#clip660)" style="stroke:#000000; stroke-linecap:round; stroke-linejoin:round; stroke-width:4; stroke-opacity:1; fill:none" points="594.472,1486.45 594.472,1467.55 "/>
<polyline clip-path="url(#clip660)" style="stroke:#000000; stroke-linecap:round; stroke-linejoin:round; stroke-width:4; stroke-opacity:1; fill:none" points="933.909,1486.45 933.909,1467.55 "/>
<polyline clip-path="url(#clip660)" style="stroke:#000000; stroke-linecap:round; stroke-linejoin:round; stroke-width:4; stroke-opacity:1; fill:none" points="1273.35,1486.45 1273.35,1467.55 "/>
<polyline clip-path="url(#clip660)" style="stroke:#000000; stroke-linecap:round; stroke-linejoin:round; stroke-width:4; stroke-opacity:1; fill:none" points="1612.78,1486.45 1612.78,1467.55 "/>
<polyline clip-path="url(#clip660)" style="stroke:#000000; stroke-linecap:round; stroke-linejoin:round; stroke-width:4; stroke-opacity:1; fill:none" points="1952.22,1486.45 1952.22,1467.55 "/>
<polyline clip-path="url(#clip660)" style="stroke:#000000; stroke-linecap:round; stroke-linejoin:round; stroke-width:4; stroke-opacity:1; fill:none" points="2291.66,1486.45 2291.66,1467.55 "/>
<path clip-path="url(#clip660)" d="M224.502 1532.02 L254.178 1532.02 L254.178 1535.95 L224.502 1535.95 L224.502 1532.02 Z" fill="#000000" fill-rule="nonzero" fill-opacity="1" /><path clip-path="url(#clip660)" d="M278.437 1530.21 Q281.794 1530.93 283.669 1533.2 Q285.567 1535.47 285.567 1538.8 Q285.567 1543.92 282.048 1546.72 Q278.53 1549.52 272.048 1549.52 Q269.873 1549.52 267.558 1549.08 Q265.266 1548.66 262.812 1547.81 L262.812 1543.29 Q264.757 1544.43 267.072 1545.01 Q269.386 1545.58 271.91 1545.58 Q276.308 1545.58 278.599 1543.85 Q280.914 1542.11 280.914 1538.8 Q280.914 1535.75 278.761 1534.03 Q276.632 1532.3 272.812 1532.3 L268.785 1532.3 L268.785 1528.45 L272.998 1528.45 Q276.447 1528.45 278.275 1527.09 Q280.104 1525.7 280.104 1523.11 Q280.104 1520.45 278.206 1519.03 Q276.331 1517.6 272.812 1517.6 Q270.891 1517.6 268.692 1518.01 Q266.493 1518.43 263.854 1519.31 L263.854 1515.14 Q266.516 1514.4 268.831 1514.03 Q271.169 1513.66 273.229 1513.66 Q278.553 1513.66 281.655 1516.09 Q284.757 1518.5 284.757 1522.62 Q284.757 1525.49 283.113 1527.48 Q281.47 1529.45 278.437 1530.21 Z" fill="#000000" fill-rule="nonzero" fill-opacity="1" /><path clip-path="url(#clip660)" d="M564.414 1532.02 L594.09 1532.02 L594.09 1535.95 L564.414 1535.95 L564.414 1532.02 Z" fill="#000000" fill-rule="nonzero" fill-opacity="1" /><path clip-path="url(#clip660)" d="M608.21 1544.91 L624.529 1544.91 L624.529 1548.85 L602.585 1548.85 L602.585 1544.91 Q605.247 1542.16 609.83 1537.53 Q614.437 1532.88 615.617 1531.53 Q617.863 1529.01 618.742 1527.27 Q619.645 1525.51 619.645 1523.82 Q619.645 1521.07 617.701 1519.33 Q615.78 1517.6 612.678 1517.6 Q610.479 1517.6 608.025 1518.36 Q605.594 1519.13 602.817 1520.68 L602.817 1515.95 Q605.641 1514.82 608.094 1514.24 Q610.548 1513.66 612.585 1513.66 Q617.955 1513.66 621.15 1516.35 Q624.344 1519.03 624.344 1523.52 Q624.344 1525.65 623.534 1527.57 Q622.747 1529.47 620.641 1532.07 Q620.062 1532.74 616.96 1535.95 Q613.858 1539.15 608.21 1544.91 Z" fill="#000000" fill-rule="nonzero" fill-opacity="1" /><path clip-path="url(#clip660)" d="M903.666 1532.02 L933.342 1532.02 L933.342 1535.95 L903.666 1535.95 L903.666 1532.02 Z" fill="#000000" fill-rule="nonzero" fill-opacity="1" /><path clip-path="url(#clip660)" d="M944.244 1544.91 L951.883 1544.91 L951.883 1518.55 L943.573 1520.21 L943.573 1515.95 L951.837 1514.29 L956.513 1514.29 L956.513 1544.91 L964.152 1544.91 L964.152 1548.85 L944.244 1548.85 L944.244 1544.91 Z" fill="#000000" fill-rule="nonzero" fill-opacity="1" /><path clip-path="url(#clip660)" d="M1273.35 1517.37 Q1269.73 1517.37 1267.91 1520.93 Q1266.1 1524.47 1266.1 1531.6 Q1266.1 1538.71 1267.91 1542.27 Q1269.73 1545.82 1273.35 1545.82 Q1276.98 1545.82 1278.79 1542.27 Q1280.61 1538.71 1280.61 1531.6 Q1280.61 1524.47 1278.79 1520.93 Q1276.98 1517.37 1273.35 1517.37 M1273.35 1513.66 Q1279.16 1513.66 1282.21 1518.27 Q1285.29 1522.85 1285.29 1531.6 Q1285.29 1540.33 1282.21 1544.94 Q1279.16 1549.52 1273.35 1549.52 Q1267.54 1549.52 1264.46 1544.94 Q1261.4 1540.33 1261.4 1531.6 Q1261.4 1522.85 1264.46 1518.27 Q1267.54 1513.66 1273.35 1513.66 Z" fill="#000000" fill-rule="nonzero" fill-opacity="1" /><path clip-path="url(#clip660)" d="M1603.17 1544.91 L1610.8 1544.91 L1610.8 1518.55 L1602.49 1520.21 L1602.49 1515.95 L1610.76 1514.29 L1615.43 1514.29 L1615.43 1544.91 L1623.07 1544.91 L1623.07 1548.85 L1603.17 1548.85 L1603.17 1544.91 Z" fill="#000000" fill-rule="nonzero" fill-opacity="1" /><path clip-path="url(#clip660)" d="M1946.87 1544.91 L1963.19 1544.91 L1963.19 1548.85 L1941.25 1548.85 L1941.25 1544.91 Q1943.91 1542.16 1948.49 1537.53 Q1953.1 1532.88 1954.28 1531.53 Q1956.53 1529.01 1957.41 1527.27 Q1958.31 1525.51 1958.31 1523.82 Q1958.31 1521.07 1956.36 1519.33 Q1954.44 1517.6 1951.34 1517.6 Q1949.14 1517.6 1946.69 1518.36 Q1944.26 1519.13 1941.48 1520.68 L1941.48 1515.95 Q1944.3 1514.82 1946.76 1514.24 Q1949.21 1513.66 1951.25 1513.66 Q1956.62 1513.66 1959.81 1516.35 Q1963.01 1519.03 1963.01 1523.52 Q1963.01 1525.65 1962.2 1527.57 Q1961.41 1529.47 1959.3 1532.07 Q1958.72 1532.74 1955.62 1535.95 Q1952.52 1539.15 1946.87 1544.91 Z" fill="#000000" fill-rule="nonzero" fill-opacity="1" /><path clip-path="url(#clip660)" d="M2295.9 1530.21 Q2299.26 1530.93 2301.14 1533.2 Q2303.03 1535.47 2303.03 1538.8 Q2303.03 1543.92 2299.52 1546.72 Q2296 1549.52 2289.52 1549.52 Q2287.34 1549.52 2285.03 1549.08 Q2282.73 1548.66 2280.28 1547.81 L2280.28 1543.29 Q2282.22 1544.43 2284.54 1545.01 Q2286.85 1545.58 2289.38 1545.58 Q2293.78 1545.58 2296.07 1543.85 Q2298.38 1542.11 2298.38 1538.8 Q2298.38 1535.75 2296.23 1534.03 Q2294.1 1532.3 2290.28 1532.3 L2286.25 1532.3 L2286.25 1528.45 L2290.47 1528.45 Q2293.91 1528.45 2295.74 1527.09 Q2297.57 1525.7 2297.57 1523.11 Q2297.57 1520.45 2295.67 1519.03 Q2293.8 1517.6 2290.28 1517.6 Q2288.36 1517.6 2286.16 1518.01 Q2283.96 1518.43 2281.32 1519.31 L2281.32 1515.14 Q2283.98 1514.4 2286.3 1514.03 Q2288.64 1513.66 2290.7 1513.66 Q2296.02 1513.66 2299.12 1516.09 Q2302.22 1518.5 2302.22 1522.62 Q2302.22 1525.49 2300.58 1527.48 Q2298.94 1529.45 2295.9 1530.21 Z" fill="#000000" fill-rule="nonzero" fill-opacity="1" /><polyline clip-path="url(#clip662)" style="stroke:#000000; stroke-linecap:round; stroke-linejoin:round; stroke-width:2; stroke-opacity:0.1; fill:none" points="193.936,1442.79 2352.76,1442.79 "/>
<polyline clip-path="url(#clip662)" style="stroke:#000000; stroke-linecap:round; stroke-linejoin:round; stroke-width:2; stroke-opacity:0.1; fill:none" points="193.936,1103.95 2352.76,1103.95 "/>
<polyline clip-path="url(#clip662)" style="stroke:#000000; stroke-linecap:round; stroke-linejoin:round; stroke-width:2; stroke-opacity:0.1; fill:none" points="193.936,765.109 2352.76,765.109 "/>
<polyline clip-path="url(#clip662)" style="stroke:#000000; stroke-linecap:round; stroke-linejoin:round; stroke-width:2; stroke-opacity:0.1; fill:none" points="193.936,426.269 2352.76,426.269 "/>
<polyline clip-path="url(#clip662)" style="stroke:#000000; stroke-linecap:round; stroke-linejoin:round; stroke-width:2; stroke-opacity:0.1; fill:none" points="193.936,87.4292 2352.76,87.4292 "/>
<polyline clip-path="url(#clip660)" style="stroke:#000000; stroke-linecap:round; stroke-linejoin:round; stroke-width:4; stroke-opacity:1; fill:none" points="193.936,1486.45 193.936,47.2441 "/>
<polyline clip-path="url(#clip660)" style="stroke:#000000; stroke-linecap:round; stroke-linejoin:round; stroke-width:4; stroke-opacity:1; fill:none" points="193.936,1442.79 212.834,1442.79 "/>
<polyline clip-path="url(#clip660)" style="stroke:#000000; stroke-linecap:round; stroke-linejoin:round; stroke-width:4; stroke-opacity:1; fill:none" points="193.936,1103.95 212.834,1103.95 "/>
<polyline clip-path="url(#clip660)" style="stroke:#000000; stroke-linecap:round; stroke-linejoin:round; stroke-width:4; stroke-opacity:1; fill:none" points="193.936,765.109 212.834,765.109 "/>
<polyline clip-path="url(#clip660)" style="stroke:#000000; stroke-linecap:round; stroke-linejoin:round; stroke-width:4; stroke-opacity:1; fill:none" points="193.936,426.269 212.834,426.269 "/>
<polyline clip-path="url(#clip660)" style="stroke:#000000; stroke-linecap:round; stroke-linejoin:round; stroke-width:4; stroke-opacity:1; fill:none" points="193.936,87.4292 212.834,87.4292 "/>
<path clip-path="url(#clip660)" d="M50.9921 1443.24 L80.6679 1443.24 L80.6679 1447.18 L50.9921 1447.18 L50.9921 1443.24 Z" fill="#000000" fill-rule="nonzero" fill-opacity="1" /><path clip-path="url(#clip660)" d="M91.5706 1456.13 L99.2095 1456.13 L99.2095 1429.77 L90.8993 1431.44 L90.8993 1427.18 L99.1632 1425.51 L103.839 1425.51 L103.839 1456.13 L111.478 1456.13 L111.478 1460.07 L91.5706 1460.07 L91.5706 1456.13 Z" fill="#000000" fill-rule="nonzero" fill-opacity="1" /><path clip-path="url(#clip660)" d="M120.922 1454.19 L125.807 1454.19 L125.807 1460.07 L120.922 1460.07 L120.922 1454.19 Z" fill="#000000" fill-rule="nonzero" fill-opacity="1" /><path clip-path="url(#clip660)" d="M145.992 1428.59 Q142.381 1428.59 140.552 1432.15 Q138.746 1435.69 138.746 1442.82 Q138.746 1449.93 140.552 1453.5 Q142.381 1457.04 145.992 1457.04 Q149.626 1457.04 151.431 1453.5 Q153.26 1449.93 153.26 1442.82 Q153.26 1435.69 151.431 1432.15 Q149.626 1428.59 145.992 1428.59 M145.992 1424.88 Q151.802 1424.88 154.857 1429.49 Q157.936 1434.07 157.936 1442.82 Q157.936 1451.55 154.857 1456.16 Q151.802 1460.74 145.992 1460.74 Q140.181 1460.74 137.103 1456.16 Q134.047 1451.55 134.047 1442.82 Q134.047 1434.07 137.103 1429.49 Q140.181 1424.88 145.992 1424.88 Z" fill="#000000" fill-rule="nonzero" fill-opacity="1" /><path clip-path="url(#clip660)" d="M51.9875 1104.4 L81.6633 1104.4 L81.6633 1108.34 L51.9875 1108.34 L51.9875 1104.4 Z" fill="#000000" fill-rule="nonzero" fill-opacity="1" /><path clip-path="url(#clip660)" d="M101.756 1089.75 Q98.1447 1089.75 96.316 1093.31 Q94.5104 1096.85 94.5104 1103.98 Q94.5104 1111.09 96.316 1114.66 Q98.1447 1118.2 101.756 1118.2 Q105.39 1118.2 107.196 1114.66 Q109.024 1111.09 109.024 1103.98 Q109.024 1096.85 107.196 1093.31 Q105.39 1089.75 101.756 1089.75 M101.756 1086.04 Q107.566 1086.04 110.621 1090.65 Q113.7 1095.23 113.7 1103.98 Q113.7 1112.71 110.621 1117.32 Q107.566 1121.9 101.756 1121.9 Q95.9456 1121.9 92.8669 1117.32 Q89.8114 1112.71 89.8114 1103.98 Q89.8114 1095.23 92.8669 1090.65 Q95.9456 1086.04 101.756 1086.04 Z" fill="#000000" fill-rule="nonzero" fill-opacity="1" /><path clip-path="url(#clip660)" d="M121.918 1115.35 L126.802 1115.35 L126.802 1121.23 L121.918 1121.23 L121.918 1115.35 Z" fill="#000000" fill-rule="nonzero" fill-opacity="1" /><path clip-path="url(#clip660)" d="M137.033 1086.67 L155.39 1086.67 L155.39 1090.6 L141.316 1090.6 L141.316 1099.08 Q142.334 1098.73 143.353 1098.57 Q144.371 1098.38 145.39 1098.38 Q151.177 1098.38 154.556 1101.55 Q157.936 1104.72 157.936 1110.14 Q157.936 1115.72 154.464 1118.82 Q150.992 1121.9 144.672 1121.9 Q142.496 1121.9 140.228 1121.53 Q137.982 1121.16 135.575 1120.42 L135.575 1115.72 Q137.658 1116.85 139.881 1117.41 Q142.103 1117.97 144.58 1117.97 Q148.584 1117.97 150.922 1115.86 Q153.26 1113.75 153.26 1110.14 Q153.26 1106.53 150.922 1104.42 Q148.584 1102.32 144.58 1102.32 Q142.705 1102.32 140.83 1102.73 Q138.978 1103.15 137.033 1104.03 L137.033 1086.67 Z" fill="#000000" fill-rule="nonzero" fill-opacity="1" /><path clip-path="url(#clip660)" d="M100.76 750.908 Q97.1493 750.908 95.3206 754.473 Q93.515 758.014 93.515 765.144 Q93.515 772.25 95.3206 775.815 Q97.1493 779.357 100.76 779.357 Q104.395 779.357 106.2 775.815 Q108.029 772.25 108.029 765.144 Q108.029 758.014 106.2 754.473 Q104.395 750.908 100.76 750.908 M100.76 747.204 Q106.571 747.204 109.626 751.811 Q112.705 756.394 112.705 765.144 Q112.705 773.871 109.626 778.477 Q106.571 783.06 100.76 783.06 Q94.9502 783.06 91.8715 778.477 Q88.816 773.871 88.816 765.144 Q88.816 756.394 91.8715 751.811 Q94.9502 747.204 100.76 747.204 Z" fill="#000000" fill-rule="nonzero" fill-opacity="1" /><path clip-path="url(#clip660)" d="M120.922 776.51 L125.807 776.51 L125.807 782.389 L120.922 782.389 L120.922 776.51 Z" fill="#000000" fill-rule="nonzero" fill-opacity="1" /><path clip-path="url(#clip660)" d="M145.992 750.908 Q142.381 750.908 140.552 754.473 Q138.746 758.014 138.746 765.144 Q138.746 772.25 140.552 775.815 Q142.381 779.357 145.992 779.357 Q149.626 779.357 151.431 775.815 Q153.26 772.25 153.26 765.144 Q153.26 758.014 151.431 754.473 Q149.626 750.908 145.992 750.908 M145.992 747.204 Q151.802 747.204 154.857 751.811 Q157.936 756.394 157.936 765.144 Q157.936 773.871 154.857 778.477 Q151.802 783.06 145.992 783.06 Q140.181 783.06 137.103 778.477 Q134.047 773.871 134.047 765.144 Q134.047 756.394 137.103 751.811 Q140.181 747.204 145.992 747.204 Z" fill="#000000" fill-rule="nonzero" fill-opacity="1" /><path clip-path="url(#clip660)" d="M101.756 412.068 Q98.1447 412.068 96.316 415.633 Q94.5104 419.174 94.5104 426.304 Q94.5104 433.41 96.316 436.975 Q98.1447 440.517 101.756 440.517 Q105.39 440.517 107.196 436.975 Q109.024 433.41 109.024 426.304 Q109.024 419.174 107.196 415.633 Q105.39 412.068 101.756 412.068 M101.756 408.364 Q107.566 408.364 110.621 412.971 Q113.7 417.554 113.7 426.304 Q113.7 435.031 110.621 439.637 Q107.566 444.22 101.756 444.22 Q95.9456 444.22 92.8669 439.637 Q89.8114 435.031 89.8114 426.304 Q89.8114 417.554 92.8669 412.971 Q95.9456 408.364 101.756 408.364 Z" fill="#000000" fill-rule="nonzero" fill-opacity="1" /><path clip-path="url(#clip660)" d="M121.918 437.67 L126.802 437.67 L126.802 443.549 L121.918 443.549 L121.918 437.67 Z" fill="#000000" fill-rule="nonzero" fill-opacity="1" /><path clip-path="url(#clip660)" d="M137.033 408.989 L155.39 408.989 L155.39 412.924 L141.316 412.924 L141.316 421.397 Q142.334 421.049 143.353 420.887 Q144.371 420.702 145.39 420.702 Q151.177 420.702 154.556 423.873 Q157.936 427.045 157.936 432.461 Q157.936 438.04 154.464 441.142 Q150.992 444.22 144.672 444.22 Q142.496 444.22 140.228 443.85 Q137.982 443.48 135.575 442.739 L135.575 438.04 Q137.658 439.174 139.881 439.73 Q142.103 440.285 144.58 440.285 Q148.584 440.285 150.922 438.179 Q153.26 436.072 153.26 432.461 Q153.26 428.85 150.922 426.744 Q148.584 424.637 144.58 424.637 Q142.705 424.637 140.83 425.054 Q138.978 425.471 137.033 426.35 L137.033 408.989 Z" fill="#000000" fill-rule="nonzero" fill-opacity="1" /><path clip-path="url(#clip660)" d="M91.5706 100.774 L99.2095 100.774 L99.2095 74.4084 L90.8993 76.0751 L90.8993 71.8159 L99.1632 70.1492 L103.839 70.1492 L103.839 100.774 L111.478 100.774 L111.478 104.709 L91.5706 104.709 L91.5706 100.774 Z" fill="#000000" fill-rule="nonzero" fill-opacity="1" /><path clip-path="url(#clip660)" d="M120.922 98.8296 L125.807 98.8296 L125.807 104.709 L120.922 104.709 L120.922 98.8296 Z" fill="#000000" fill-rule="nonzero" fill-opacity="1" /><path clip-path="url(#clip660)" d="M145.992 73.2279 Q142.381 73.2279 140.552 76.7927 Q138.746 80.3343 138.746 87.4639 Q138.746 94.5704 140.552 98.1352 Q142.381 101.677 145.992 101.677 Q149.626 101.677 151.431 98.1352 Q153.26 94.5704 153.26 87.4639 Q153.26 80.3343 151.431 76.7927 Q149.626 73.2279 145.992 73.2279 M145.992 69.5242 Q151.802 69.5242 154.857 74.1307 Q157.936 78.714 157.936 87.4639 Q157.936 96.1907 154.857 100.797 Q151.802 105.38 145.992 105.38 Q140.181 105.38 137.103 100.797 Q134.047 96.1907 134.047 87.4639 Q134.047 78.714 137.103 74.1307 Q140.181 69.5242 145.992 69.5242 Z" fill="#000000" fill-rule="nonzero" fill-opacity="1" /><polyline clip-path="url(#clip662)" style="stroke:#009af9; stroke-linecap:round; stroke-linejoin:round; stroke-width:10; stroke-opacity:1; fill:none" points="255.035,860.743 296.598,941.973 338.162,1020.55 379.726,1095.31 421.29,1165.12 462.853,1228.94 504.417,1285.82 545.981,1334.89 587.544,1375.44 629.108,1406.84 670.672,1428.64 712.236,1440.5 753.799,1442.24 795.363,1433.85 836.927,1415.44 878.491,1387.29 920.054,1349.82 961.618,1303.6 1003.18,1249.32 1044.75,1187.78 1086.31,1119.91 1127.87,1046.73 1169.44,969.337 1211,888.882 1252.56,806.574 1294.13,723.644 1335.69,641.336 1377.26,560.881 1418.82,483.484 1460.38,410.305 1501.95,342.439 1543.51,280.902 1585.07,226.617 1626.64,180.395 1668.2,142.93 1709.77,114.781 1751.33,96.3716 1792.89,87.9763 1834.46,89.721 1876.02,101.58 1917.58,123.375 1959.15,154.78 2000.71,195.325 2042.27,244.402 2083.84,301.277 2125.4,365.098 2166.97,434.909 2208.53,509.664 2250.09,588.245 2291.66,669.475 "/>
<circle clip-path="url(#clip662)" cx="255.035" cy="820.149" r="18" fill="#e26f46" fill-rule="evenodd" fill-opacity="1" stroke="#000000" stroke-opacity="1" stroke-width="3.2"/>
<circle clip-path="url(#clip662)" cx="481.326" cy="1273.39" r="18" fill="#e26f46" fill-rule="evenodd" fill-opacity="1" stroke="#000000" stroke-opacity="1" stroke-width="3.2"/>
<circle clip-path="url(#clip662)" cx="707.617" cy="1445.72" r="18" fill="#e26f46" fill-rule="evenodd" fill-opacity="1" stroke="#000000" stroke-opacity="1" stroke-width="3.2"/>
<circle clip-path="url(#clip662)" cx="933.909" cy="1321.87" r="18" fill="#e26f46" fill-rule="evenodd" fill-opacity="1" stroke="#000000" stroke-opacity="1" stroke-width="3.2"/>
<circle clip-path="url(#clip662)" cx="1160.2" cy="985.564" r="18" fill="#e26f46" fill-rule="evenodd" fill-opacity="1" stroke="#000000" stroke-opacity="1" stroke-width="3.2"/>
<circle clip-path="url(#clip662)" cx="1386.49" cy="574.063" r="18" fill="#e26f46" fill-rule="evenodd" fill-opacity="1" stroke="#000000" stroke-opacity="1" stroke-width="3.2"/>
<circle clip-path="url(#clip662)" cx="1612.78" cy="165.864" r="18" fill="#e26f46" fill-rule="evenodd" fill-opacity="1" stroke="#000000" stroke-opacity="1" stroke-width="3.2"/>
<circle clip-path="url(#clip662)" cx="1839.07" cy="99.1594" r="18" fill="#e26f46" fill-rule="evenodd" fill-opacity="1" stroke="#000000" stroke-opacity="1" stroke-width="3.2"/>
<circle clip-path="url(#clip662)" cx="2065.37" cy="254.797" r="18" fill="#e26f46" fill-rule="evenodd" fill-opacity="1" stroke="#000000" stroke-opacity="1" stroke-width="3.2"/>
<circle clip-path="url(#clip662)" cx="2291.66" cy="672.937" r="18" fill="#e26f46" fill-rule="evenodd" fill-opacity="1" stroke="#000000" stroke-opacity="1" stroke-width="3.2"/>
<path clip-path="url(#clip660)" d="M265.897 250.738 L581.639 250.738 L581.639 95.2176 L265.897 95.2176  Z" fill="#ffffff" fill-rule="evenodd" fill-opacity="1"/>
<polyline clip-path="url(#clip660)" style="stroke:#000000; stroke-linecap:round; stroke-linejoin:round; stroke-width:4; stroke-opacity:1; fill:none" points="265.897,250.738 581.639,250.738 581.639,95.2176 265.897,95.2176 265.897,250.738 "/>
<polyline clip-path="url(#clip660)" style="stroke:#009af9; stroke-linecap:round; stroke-linejoin:round; stroke-width:10; stroke-opacity:1; fill:none" points="289.884,147.058 433.805,147.058 "/>
<path clip-path="url(#clip660)" d="M465.199 131.051 L465.199 138.412 L473.972 138.412 L473.972 141.722 L465.199 141.722 L465.199 155.796 Q465.199 158.967 466.056 159.87 Q466.935 160.773 469.597 160.773 L473.972 160.773 L473.972 164.338 L469.597 164.338 Q464.667 164.338 462.792 162.509 Q460.917 160.657 460.917 155.796 L460.917 141.722 L457.792 141.722 L457.792 138.412 L460.917 138.412 L460.917 131.051 L465.199 131.051 Z" fill="#000000" fill-rule="nonzero" fill-opacity="1" /><path clip-path="url(#clip660)" d="M494.597 142.393 Q493.88 141.977 493.023 141.791 Q492.19 141.583 491.171 141.583 Q487.56 141.583 485.616 143.944 Q483.694 146.282 483.694 150.68 L483.694 164.338 L479.412 164.338 L479.412 138.412 L483.694 138.412 L483.694 142.44 Q485.037 140.078 487.19 138.944 Q489.343 137.787 492.421 137.787 Q492.861 137.787 493.393 137.856 Q493.926 137.903 494.574 138.018 L494.597 142.393 Z" fill="#000000" fill-rule="nonzero" fill-opacity="1" /><path clip-path="url(#clip660)" d="M498.625 154.106 L498.625 138.412 L502.884 138.412 L502.884 153.944 Q502.884 157.625 504.319 159.476 Q505.754 161.305 508.625 161.305 Q512.074 161.305 514.065 159.106 Q516.078 156.907 516.078 153.111 L516.078 138.412 L520.338 138.412 L520.338 164.338 L516.078 164.338 L516.078 160.356 Q514.528 162.717 512.467 163.875 Q510.43 165.009 507.722 165.009 Q503.254 165.009 500.94 162.231 Q498.625 159.453 498.625 154.106 M509.342 137.787 L509.342 137.787 Z" fill="#000000" fill-rule="nonzero" fill-opacity="1" /><path clip-path="url(#clip660)" d="M551.287 150.31 L551.287 152.393 L531.703 152.393 Q531.981 156.791 534.342 159.106 Q536.727 161.398 540.963 161.398 Q543.416 161.398 545.708 160.796 Q548.023 160.194 550.291 158.99 L550.291 163.018 Q548 163.99 545.592 164.5 Q543.185 165.009 540.708 165.009 Q534.504 165.009 530.87 161.398 Q527.259 157.787 527.259 151.629 Q527.259 145.264 530.685 141.537 Q534.134 137.787 539.967 137.787 Q545.199 137.787 548.231 141.166 Q551.287 144.523 551.287 150.31 M547.027 149.06 Q546.981 145.565 545.06 143.481 Q543.162 141.398 540.014 141.398 Q536.449 141.398 534.296 143.412 Q532.166 145.426 531.842 149.083 L547.027 149.06 Z" fill="#000000" fill-rule="nonzero" fill-opacity="1" /><circle clip-path="url(#clip660)" cx="361.844" cy="198.898" r="20.9455" fill="#e26f46" fill-rule="evenodd" fill-opacity="1" stroke="#000000" stroke-opacity="1" stroke-width="3.72364"/>
<path clip-path="url(#clip660)" d="M476.704 194.187 L476.704 180.159 L480.963 180.159 L480.963 216.178 L476.704 216.178 L476.704 212.289 Q475.361 214.603 473.301 215.738 Q471.264 216.849 468.394 216.849 Q463.695 216.849 460.732 213.099 Q457.792 209.349 457.792 203.238 Q457.792 197.127 460.732 193.377 Q463.695 189.627 468.394 189.627 Q471.264 189.627 473.301 190.761 Q475.361 191.872 476.704 194.187 M462.19 203.238 Q462.19 207.937 464.111 210.622 Q466.056 213.284 469.435 213.284 Q472.815 213.284 474.759 210.622 Q476.704 207.937 476.704 203.238 Q476.704 198.539 474.759 195.877 Q472.815 193.192 469.435 193.192 Q466.056 193.192 464.111 195.877 Q462.19 198.539 462.19 203.238 Z" fill="#000000" fill-rule="nonzero" fill-opacity="1" /><path clip-path="url(#clip660)" d="M501.518 203.145 Q496.356 203.145 494.366 204.326 Q492.375 205.506 492.375 208.354 Q492.375 210.622 493.856 211.965 Q495.361 213.284 497.93 213.284 Q501.472 213.284 503.602 210.784 Q505.754 208.261 505.754 204.094 L505.754 203.145 L501.518 203.145 M510.014 201.386 L510.014 216.178 L505.754 216.178 L505.754 212.242 Q504.296 214.603 502.12 215.738 Q499.944 216.849 496.796 216.849 Q492.815 216.849 490.454 214.627 Q488.116 212.381 488.116 208.631 Q488.116 204.256 491.032 202.034 Q493.972 199.812 499.782 199.812 L505.754 199.812 L505.754 199.395 Q505.754 196.455 503.81 194.858 Q501.889 193.238 498.393 193.238 Q496.171 193.238 494.065 193.77 Q491.958 194.303 490.014 195.367 L490.014 191.432 Q492.352 190.53 494.551 190.09 Q496.75 189.627 498.833 189.627 Q504.458 189.627 507.236 192.543 Q510.014 195.46 510.014 201.386 Z" fill="#000000" fill-rule="nonzero" fill-opacity="1" /><path clip-path="url(#clip660)" d="M523 182.891 L523 190.252 L531.773 190.252 L531.773 193.562 L523 193.562 L523 207.636 Q523 210.807 523.856 211.71 Q524.736 212.613 527.398 212.613 L531.773 212.613 L531.773 216.178 L527.398 216.178 Q522.467 216.178 520.592 214.349 Q518.717 212.497 518.717 207.636 L518.717 193.562 L515.592 193.562 L515.592 190.252 L518.717 190.252 L518.717 182.891 L523 182.891 Z" fill="#000000" fill-rule="nonzero" fill-opacity="1" /><path clip-path="url(#clip660)" d="M549.157 203.145 Q543.995 203.145 542.004 204.326 Q540.014 205.506 540.014 208.354 Q540.014 210.622 541.495 211.965 Q543 213.284 545.569 213.284 Q549.111 213.284 551.24 210.784 Q553.393 208.261 553.393 204.094 L553.393 203.145 L549.157 203.145 M557.652 201.386 L557.652 216.178 L553.393 216.178 L553.393 212.242 Q551.935 214.603 549.759 215.738 Q547.583 216.849 544.435 216.849 Q540.453 216.849 538.092 214.627 Q535.754 212.381 535.754 208.631 Q535.754 204.256 538.671 202.034 Q541.611 199.812 547.421 199.812 L553.393 199.812 L553.393 199.395 Q553.393 196.455 551.449 194.858 Q549.527 193.238 546.032 193.238 Q543.81 193.238 541.703 193.77 Q539.597 194.303 537.652 195.367 L537.652 191.432 Q539.99 190.53 542.189 190.09 Q544.389 189.627 546.472 189.627 Q552.097 189.627 554.875 192.543 Q557.652 195.46 557.652 201.386 Z" fill="#000000" fill-rule="nonzero" fill-opacity="1" /></svg>
