<?xml version="1.0" encoding="utf-8"?>
<svg xmlns="http://www.w3.org/2000/svg" xmlns:xlink="http://www.w3.org/1999/xlink" width="600" height="400" viewBox="0 0 2400 1600">
<defs>
  <clipPath id="clip690">
    <rect x="0" y="0" width="2400" height="1600"/>
  </clipPath>
</defs>
<path clip-path="url(#clip690)" d="M0 1600 L2400 1600 L2400 0 L0 0  Z" fill="#ffffff" fill-rule="evenodd" fill-opacity="1"/>
<defs>
  <clipPath id="clip691">
    <rect x="480" y="0" width="1681" height="1600"/>
  </clipPath>
</defs>
<path clip-path="url(#clip690)" d="M193.936 1486.45 L2352.76 1486.45 L2352.76 47.2441 L193.936 47.2441  Z" fill="#ffffff" fill-rule="evenodd" fill-opacity="1"/>
<defs>
  <clipPath id="clip692">
    <rect x="193" y="47" width="2160" height="1440"/>
  </clipPath>
</defs>
<polyline clip-path="url(#clip692)" style="stroke:#000000; stroke-linecap:round; stroke-linejoin:round; stroke-width:2; stroke-opacity:0.1; fill:none" points="255.035,1486.45 255.035,47.2441 "/>
<polyline clip-path="url(#clip692)" style="stroke:#000000; stroke-linecap:round; stroke-linejoin:round; stroke-width:2; stroke-opacity:0.1; fill:none" points="594.472,1486.45 594.472,47.2441 "/>
<polyline clip-path="url(#clip692)" style="stroke:#000000; stroke-linecap:round; stroke-linejoin:round; stroke-width:2; stroke-opacity:0.1; fill:none" points="933.909,1486.45 933.909,47.2441 "/>
<polyline clip-path="url(#clip692)" style="stroke:#000000; stroke-linecap:round; stroke-linejoin:round; stroke-width:2; stroke-opacity:0.1; fill:none" points="1273.35,1486.45 1273.35,47.2441 "/>
<polyline clip-path="url(#clip692)" style="stroke:#000000; stroke-linecap:round; stroke-linejoin:round; stroke-width:2; stroke-opacity:0.1; fill:none" points="1612.78,1486.45 1612.78,47.2441 "/>
<polyline clip-path="url(#clip692)" style="stroke:#000000; stroke-linecap:round; stroke-linejoin:round; stroke-width:2; stroke-opacity:0.1; fill:none" points="1952.22,1486.45 1952.22,47.2441 "/>
<polyline clip-path="url(#clip692)" style="stroke:#000000; stroke-linecap:round; stroke-linejoin:round; stroke-width:2; stroke-opacity:0.1; fill:none" points="2291.66,1486.45 2291.66,47.2441 "/>
<polyline clip-path="url(#clip690)" style="stroke:#000000; stroke-linecap:round; stroke-linejoin:round; stroke-width:4; stroke-opacity:1; fill:none" points="193.936,1486.45 2352.76,1486.45 "/>
<polyline clip-path="url(#clip690)" style="stroke:#000000; stroke-linecap:round; stroke-linejoin:round; stroke-width:4; stroke-opacity:1; fill:none" points="255.035,1486.45 255.035,1467.55 "/>
<polyline clip-path="url(#clip690)" style="stroke:#000000; stroke-linecap:round; stroke-linejoin:round; stroke-width:4; stroke-opacity:1; fill:none" points="594.472,1486.45 594.472,1467.55 "/>
<polyline clip-path="url(#clip690)" style="stroke:#000000; stroke-linecap:round; stroke-linejoin:round; stroke-width:4; stroke-opacity:1; fill:none" points="933.909,1486.45 933.909,1467.55 "/>
<polyline clip-path="url(#clip690)" style="stroke:#000000; stroke-linecap:round; stroke-linejoin:round; stroke-width:4; stroke-opacity:1; fill:none" points="1273.35,1486.45 1273.35,1467.55 "/>
<polyline clip-path="url(#clip690)" style="stroke:#000000; stroke-linecap:round; stroke-linejoin:round; stroke-width:4; stroke-opacity:1; fill:none" points="1612.78,1486.45 1612.78,1467.55 "/>
<polyline clip-path="url(#clip690)" style="stroke:#000000; stroke-linecap:round; stroke-linejoin:round; stroke-width:4; stroke-opacity:1; fill:none" points="1952.22,1486.45 1952.22,1467.55 "/>
<polyline clip-path="url(#clip690)" style="stroke:#000000; stroke-linecap:round; stroke-linejoin:round; stroke-width:4; stroke-opacity:1; fill:none" points="2291.66,1486.45 2291.66,1467.55 "/>
<path clip-path="url(#clip690)" d="M224.502 1532.02 L254.178 1532.02 L254.178 1535.95 L224.502 1535.95 L224.502 1532.02 Z" fill="#000000" fill-rule="nonzero" fill-opacity="1" /><path clip-path="url(#clip690)" d="M278.437 1530.21 Q281.794 1530.93 283.669 1533.2 Q285.567 1535.47 285.567 1538.8 Q285.567 1543.92 282.048 1546.72 Q278.53 1549.52 272.048 1549.52 Q269.873 1549.52 267.558 1549.08 Q265.266 1548.66 262.812 1547.81 L262.812 1543.29 Q264.757 1544.43 267.072 1545.01 Q269.386 1545.58 271.91 1545.58 Q276.308 1545.58 278.599 1543.85 Q280.914 1542.11 280.914 1538.8 Q280.914 1535.75 278.761 1534.03 Q276.632 1532.3 272.812 1532.3 L268.785 1532.3 L268.785 1528.45 L272.998 1528.45 Q276.447 1528.45 278.275 1527.09 Q280.104 1525.7 280.104 1523.11 Q280.104 1520.45 278.206 1519.03 Q276.331 1517.6 272.812 1517.6 Q270.891 1517.6 268.692 1518.01 Q266.493 1518.43 263.854 1519.31 L263.854 1515.14 Q266.516 1514.4 268.831 1514.03 Q271.169 1513.66 273.229 1513.66 Q278.553 1513.66 281.655 1516.09 Q284.757 1518.5 284.757 1522.62 Q284.757 1525.49 283.113 1527.48 Q281.47 1529.45 278.437 1530.21 Z" fill="#000000" fill-rule="nonzero" fill-opacity="1" /><path clip-path="url(#clip690)" d="M564.414 1532.02 L594.09 1532.02 L594.09 1535.95 L564.414 1535.95 L564.414 1532.02 Z" fill="#000000" fill-rule="nonzero" fill-opacity="1" /><path clip-path="url(#clip690)" d="M608.21 1544.91 L624.529 1544.91 L624.529 1548.85 L602.585 1548.85 L602.585 1544.91 Q605.247 1542.16 609.83 1537.53 Q614.437 1532.88 615.617 1531.53 Q617.863 1529.01 618.742 1527.27 Q619.645 1525.51 619.645 1523.82 Q619.645 1521.07 617.701 1519.33 Q615.78 1517.6 612.678 1517.6 Q610.479 1517.6 608.025 1518.36 Q605.594 1519.13 602.817 1520.68 L602.817 1515.95 Q605.641 1514.82 608.094 1514.24 Q610.548 1513.66 612.585 1513.66 Q617.955 1513.66 621.15 1516.35 Q624.344 1519.03 624.344 1523.52 Q624.344 1525.65 623.534 1527.57 Q622.747 1529.47 620.641 1532.07 Q620.062 1532.74 616.96 1535.95 Q613.858 1539.15 608.21 1544.91 Z" fill="#000000" fill-rule="nonzero" fill-opacity="1" /><path clip-path="url(#clip690)" d="M903.666 1532.02 L933.342 1532.02 L933.342 1535.95 L903.666 1535.95 L903.666 1532.02 Z" fill="#000000" fill-rule="nonzero" fill-opacity="1" /><path clip-path="url(#clip690)" d="M944.244 1544.91 L951.883 1544.91 L951.883 1518.55 L943.573 1520.21 L943.573 1515.95 L951.837 1514.29 L956.513 1514.29 L956.513 1544.91 L964.152 1544.91 L964.152 1548.85 L944.244 1548.85 L944.244 1544.91 Z" fill="#000000" fill-rule="nonzero" fill-opacity="1" /><path clip-path="url(#clip690)" d="M1273.35 1517.37 Q1269.73 1517.37 1267.91 1520.93 Q1266.1 1524.47 1266.1 1531.6 Q1266.1 1538.71 1267.91 1542.27 Q1269.73 1545.82 1273.35 1545.82 Q1276.98 1545.82 1278.79 1542.27 Q1280.61 1538.71 1280.61 1531.6 Q1280.61 1524.47 1278.79 1520.93 Q1276.98 1517.37 1273.35 1517.37 M1273.35 1513.66 Q1279.16 1513.66 1282.21 1518.27 Q1285.29 1522.85 1285.29 1531.6 Q1285.29 1540.33 1282.21 1544.94 Q1279.16 1549.52 1273.35 1549.52 Q1267.54 1549.52 1264.46 1544.94 Q1261.4 1540.33 1261.4 1531.6 Q1261.4 1522.85 1264.46 1518.27 Q1267.54 1513.66 1273.35 1513.66 Z" fill="#000000" fill-rule="nonzero" fill-opacity="1" /><path clip-path="url(#clip690)" d="M1603.17 1544.91 L1610.8 1544.91 L1610.8 1518.55 L1602.49 1520.21 L1602.49 1515.95 L1610.76 1514.29 L1615.43 1514.29 L1615.43 1544.91 L1623.07 1544.91 L1623.07 1548.85 L1603.17 1548.85 L1603.17 1544.91 Z" fill="#000000" fill-rule="nonzero" fill-opacity="1" /><path clip-path="url(#clip690)" d="M1946.87 1544.91 L1963.19 1544.91 L1963.19 1548.85 L1941.25 1548.85 L1941.25 1544.91 Q1943.91 1542.16 1948.49 1537.53 Q1953.1 1532.88 1954.28 1531.53 Q1956.53 1529.01 1957.41 1527.27 Q1958.31 1525.51 1958.31 1523.82 Q1958.31 1521.07 1956.36 1519.33 Q1954.44 1517.6 1951.34 1517.6 Q1949.14 1517.6 1946.69 1518.36 Q1944.26 1519.13 1941.48 1520.68 L1941.48 1515.95 Q1944.3 1514.82 1946.76 1514.24 Q1949.21 1513.66 1951.25 1513.66 Q1956.62 1513.66 1959.81 1516.35 Q1963.01 1519.03 1963.01 1523.52 Q1963.01 1525.65 1962.2 1527.57 Q1961.41 1529.47 1959.3 1532.07 Q1958.72 1532.74 1955.62 1535.95 Q1952.52 1539.15 1946.87 1544.91 Z" fill="#000000" fill-rule="nonzero" fill-opacity="1" /><path clip-path="url(#clip690)" d="M2295.9 1530.21 Q2299.26 1530.93 2301.14 1533.2 Q2303.03 1535.47 2303.03 1538.8 Q2303.03 1543.92 2299.52 1546.72 Q2296 1549.52 2289.52 1549.52 Q2287.34 1549.52 2285.03 1549.08 Q2282.73 1548.66 2280.28 1547.81 L2280.28 1543.29 Q2282.22 1544.43 2284.54 1545.01 Q2286.85 1545.58 2289.38 1545.58 Q2293.78 1545.58 2296.07 1543.85 Q2298.38 1542.11 2298.38 1538.8 Q2298.38 1535.75 2296.23 1534.03 Q2294.1 1532.3 2290.28 1532.3 L2286.25 1532.3 L2286.25 1528.45 L2290.47 1528.45 Q2293.91 1528.45 2295.74 1527.09 Q2297.57 1525.7 2297.57 1523.11 Q2297.57 1520.45 2295.67 1519.03 Q2293.8 1517.6 2290.28 1517.6 Q2288.36 1517.6 2286.16 1518.01 Q2283.96 1518.43 2281.32 1519.31 L2281.32 1515.14 Q2283.98 1514.4 2286.3 1514.03 Q2288.64 1513.66 2290.7 1513.66 Q2296.02 1513.66 2299.12 1516.09 Q2302.22 1518.5 2302.22 1522.62 Q2302.22 1525.49 2300.58 1527.48 Q2298.94 1529.45 2295.9 1530.21 Z" fill="#000000" fill-rule="nonzero" fill-opacity="1" /><polyline clip-path="url(#clip692)" style="stroke:#000000; stroke-linecap:round; stroke-linejoin:round; stroke-width:2; stroke-opacity:0.1; fill:none" points="193.936,1419.78 2352.76,1419.78 "/>
<polyline clip-path="url(#clip692)" style="stroke:#000000; stroke-linecap:round; stroke-linejoin:round; stroke-width:2; stroke-opacity:0.1; fill:none" points="193.936,1092.3 2352.76,1092.3 "/>
<polyline clip-path="url(#clip692)" style="stroke:#000000; stroke-linecap:round; stroke-linejoin:round; stroke-width:2; stroke-opacity:0.1; fill:none" points="193.936,764.823 2352.76,764.823 "/>
<polyline clip-path="url(#clip692)" style="stroke:#000000; stroke-linecap:round; stroke-linejoin:round; stroke-width:2; stroke-opacity:0.1; fill:none" points="193.936,437.345 2352.76,437.345 "/>
<polyline clip-path="url(#clip692)" style="stroke:#000000; stroke-linecap:round; stroke-linejoin:round; stroke-width:2; stroke-opacity:0.1; fill:none" points="193.936,109.867 2352.76,109.867 "/>
<polyline clip-path="url(#clip690)" style="stroke:#000000; stroke-linecap:round; stroke-linejoin:round; stroke-width:4; stroke-opacity:1; fill:none" points="193.936,1486.45 193.936,47.2441 "/>
<polyline clip-path="url(#clip690)" style="stroke:#000000; stroke-linecap:round; stroke-linejoin:round; stroke-width:4; stroke-opacity:1; fill:none" points="193.936,1419.78 212.834,1419.78 "/>
<polyline clip-path="url(#clip690)" style="stroke:#000000; stroke-linecap:round; stroke-linejoin:round; stroke-width:4; stroke-opacity:1; fill:none" points="193.936,1092.3 212.834,1092.3 "/>
<polyline clip-path="url(#clip690)" style="stroke:#000000; stroke-linecap:round; stroke-linejoin:round; stroke-width:4; stroke-opacity:1; fill:none" points="193.936,764.823 212.834,764.823 "/>
<polyline clip-path="url(#clip690)" style="stroke:#000000; stroke-linecap:round; stroke-linejoin:round; stroke-width:4; stroke-opacity:1; fill:none" points="193.936,437.345 212.834,437.345 "/>
<polyline clip-path="url(#clip690)" style="stroke:#000000; stroke-linecap:round; stroke-linejoin:round; stroke-width:4; stroke-opacity:1; fill:none" points="193.936,109.867 212.834,109.867 "/>
<path clip-path="url(#clip690)" d="M50.9921 1420.23 L80.6679 1420.23 L80.6679 1424.16 L50.9921 1424.16 L50.9921 1420.23 Z" fill="#000000" fill-rule="nonzero" fill-opacity="1" /><path clip-path="url(#clip690)" d="M91.5706 1433.12 L99.2095 1433.12 L99.2095 1406.76 L90.8993 1408.42 L90.8993 1404.16 L99.1632 1402.5 L103.839 1402.5 L103.839 1433.12 L111.478 1433.12 L111.478 1437.06 L91.5706 1437.06 L91.5706 1433.12 Z" fill="#000000" fill-rule="nonzero" fill-opacity="1" /><path clip-path="url(#clip690)" d="M120.922 1431.18 L125.807 1431.18 L125.807 1437.06 L120.922 1437.06 L120.922 1431.18 Z" fill="#000000" fill-rule="nonzero" fill-opacity="1" /><path clip-path="url(#clip690)" d="M145.992 1405.58 Q142.381 1405.58 140.552 1409.14 Q138.746 1412.68 138.746 1419.81 Q138.746 1426.92 140.552 1430.48 Q142.381 1434.03 145.992 1434.03 Q149.626 1434.03 151.431 1430.48 Q153.26 1426.92 153.26 1419.81 Q153.26 1412.68 151.431 1409.14 Q149.626 1405.58 145.992 1405.58 M145.992 1401.87 Q151.802 1401.87 154.857 1406.48 Q157.936 1411.06 157.936 1419.81 Q157.936 1428.54 154.857 1433.15 Q151.802 1437.73 145.992 1437.73 Q140.181 1437.73 137.103 1433.15 Q134.047 1428.54 134.047 1419.81 Q134.047 1411.06 137.103 1406.48 Q140.181 1401.87 145.992 1401.87 Z" fill="#000000" fill-rule="nonzero" fill-opacity="1" /><path clip-path="url(#clip690)" d="M51.9875 1092.75 L81.6633 1092.75 L81.6633 1096.69 L51.9875 1096.69 L51.9875 1092.75 Z" fill="#000000" fill-rule="nonzero" fill-opacity="1" /><path clip-path="url(#clip690)" d="M101.756 1078.1 Q98.1447 1078.1 96.316 1081.66 Q94.5104 1085.21 94.5104 1092.34 Q94.5104 1099.44 96.316 1103.01 Q98.1447 1106.55 101.756 1106.55 Q105.39 1106.55 107.196 1103.01 Q109.024 1099.44 109.024 1092.34 Q109.024 1085.21 107.196 1081.66 Q105.39 1078.1 101.756 1078.1 M101.756 1074.4 Q107.566 1074.4 110.621 1079 Q113.7 1083.59 113.7 1092.34 Q113.7 1101.06 110.621 1105.67 Q107.566 1110.25 101.756 1110.25 Q95.9456 1110.25 92.8669 1105.67 Q89.8114 1101.06 89.8114 1092.34 Q89.8114 1083.59 92.8669 1079 Q95.9456 1074.4 101.756 1074.4 Z" fill="#000000" fill-rule="nonzero" fill-opacity="1" /><path clip-path="url(#clip690)" d="M121.918 1103.7 L126.802 1103.7 L126.802 1109.58 L121.918 1109.58 L121.918 1103.7 Z" fill="#000000" fill-rule="nonzero" fill-opacity="1" /><path clip-path="url(#clip690)" d="M137.033 1075.02 L155.39 1075.02 L155.39 1078.96 L141.316 1078.96 L141.316 1087.43 Q142.334 1087.08 143.353 1086.92 Q144.371 1086.73 145.39 1086.73 Q151.177 1086.73 154.556 1089.9 Q157.936 1093.08 157.936 1098.49 Q157.936 1104.07 154.464 1107.17 Q150.992 1110.25 144.672 1110.25 Q142.496 1110.25 140.228 1109.88 Q137.982 1109.51 135.575 1108.77 L135.575 1104.07 Q137.658 1105.21 139.881 1105.76 Q142.103 1106.32 144.58 1106.32 Q148.584 1106.32 150.922 1104.21 Q153.26 1102.1 153.26 1098.49 Q153.26 1094.88 150.922 1092.77 Q148.584 1090.67 144.58 1090.67 Q142.705 1090.67 140.83 1091.09 Q138.978 1091.5 137.033 1092.38 L137.033 1075.02 Z" fill="#000000" fill-rule="nonzero" fill-opacity="1" /><path clip-path="url(#clip690)" d="M100.76 750.621 Q97.1493 750.621 95.3206 754.186 Q93.515 757.728 93.515 764.857 Q93.515 771.964 95.3206 775.529 Q97.1493 779.07 100.76 779.07 Q104.395 779.07 106.2 775.529 Q108.029 771.964 108.029 764.857 Q108.029 757.728 106.2 754.186 Q104.395 750.621 100.76 750.621 M100.76 746.918 Q106.571 746.918 109.626 751.524 Q112.705 756.108 112.705 764.857 Q112.705 773.584 109.626 778.191 Q106.571 782.774 100.76 782.774 Q94.9502 782.774 91.8715 778.191 Q88.816 773.584 88.816 764.857 Q88.816 756.108 91.8715 751.524 Q94.9502 746.918 100.76 746.918 Z" fill="#000000" fill-rule="nonzero" fill-opacity="1" /><path clip-path="url(#clip690)" d="M120.922 776.223 L125.807 776.223 L125.807 782.103 L120.922 782.103 L120.922 776.223 Z" fill="#000000" fill-rule="nonzero" fill-opacity="1" /><path clip-path="url(#clip690)" d="M145.992 750.621 Q142.381 750.621 140.552 754.186 Q138.746 757.728 138.746 764.857 Q138.746 771.964 140.552 775.529 Q142.381 779.07 145.992 779.07 Q149.626 779.07 151.431 775.529 Q153.26 771.964 153.26 764.857 Q153.26 757.728 151.431 754.186 Q149.626 750.621 145.992 750.621 M145.992 746.918 Q151.802 746.918 154.857 751.524 Q157.936 756.108 157.936 764.857 Q157.936 773.584 154.857 778.191 Q151.802 782.774 145.992 782.774 Q140.181 782.774 137.103 778.191 Q134.047 773.584 134.047 764.857 Q134.047 756.108 137.103 751.524 Q140.181 746.918 145.992 746.918 Z" fill="#000000" fill-rule="nonzero" fill-opacity="1" /><path clip-path="url(#clip690)" d="M101.756 423.144 Q98.1447 423.144 96.316 426.709 Q94.5104 430.25 94.5104 437.38 Q94.5104 444.486 96.316 448.051 Q98.1447 451.593 101.756 451.593 Q105.39 451.593 107.196 448.051 Q109.024 444.486 109.024 437.38 Q109.024 430.25 107.196 426.709 Q105.39 423.144 101.756 423.144 M101.756 419.44 Q107.566 419.44 110.621 424.047 Q113.7 428.63 113.7 437.38 Q113.7 446.107 110.621 450.713 Q107.566 455.296 101.756 455.296 Q95.9456 455.296 92.8669 450.713 Q89.8114 446.107 89.8114 437.38 Q89.8114 428.63 92.8669 424.047 Q95.9456 419.44 101.756 419.44 Z" fill="#000000" fill-rule="nonzero" fill-opacity="1" /><path clip-path="url(#clip690)" d="M121.918 448.746 L126.802 448.746 L126.802 454.625 L121.918 454.625 L121.918 448.746 Z" fill="#000000" fill-rule="nonzero" fill-opacity="1" /><path clip-path="url(#clip690)" d="M137.033 420.065 L155.39 420.065 L155.39 424 L141.316 424 L141.316 432.472 Q142.334 432.125 143.353 431.963 Q144.371 431.778 145.39 431.778 Q151.177 431.778 154.556 434.949 Q157.936 438.121 157.936 443.537 Q157.936 449.116 154.464 452.218 Q150.992 455.296 144.672 455.296 Q142.496 455.296 140.228 454.926 Q137.982 454.556 135.575 453.815 L135.575 449.116 Q137.658 450.25 139.881 450.806 Q142.103 451.361 144.58 451.361 Q148.584 451.361 150.922 449.255 Q153.26 447.148 153.26 443.537 Q153.26 439.926 150.922 437.82 Q148.584 435.713 144.58 435.713 Q142.705 435.713 140.83 436.13 Q138.978 436.547 137.033 437.426 L137.033 420.065 Z" fill="#000000" fill-rule="nonzero" fill-opacity="1" /><path clip-path="url(#clip690)" d="M91.5706 123.212 L99.2095 123.212 L99.2095 96.8467 L90.8993 98.5134 L90.8993 94.2542 L99.1632 92.5875 L103.839 92.5875 L103.839 123.212 L111.478 123.212 L111.478 127.147 L91.5706 127.147 L91.5706 123.212 Z" fill="#000000" fill-rule="nonzero" fill-opacity="1" /><path clip-path="url(#clip690)" d="M120.922 121.268 L125.807 121.268 L125.807 127.147 L120.922 127.147 L120.922 121.268 Z" fill="#000000" fill-rule="nonzero" fill-opacity="1" /><path clip-path="url(#clip690)" d="M145.992 95.6662 Q142.381 95.6662 140.552 99.231 Q138.746 102.773 138.746 109.902 Q138.746 117.009 140.552 120.573 Q142.381 124.115 145.992 124.115 Q149.626 124.115 151.431 120.573 Q153.26 117.009 153.26 109.902 Q153.26 102.773 151.431 99.231 Q149.626 95.6662 145.992 95.6662 M145.992 91.9625 Q151.802 91.9625 154.857 96.569 Q157.936 101.152 157.936 109.902 Q157.936 118.629 154.857 123.235 Q151.802 127.819 145.992 127.819 Q140.181 127.819 137.103 123.235 Q134.047 118.629 134.047 109.902 Q134.047 101.152 137.103 96.569 Q140.181 91.9625 145.992 91.9625 Z" fill="#000000" fill-rule="nonzero" fill-opacity="1" /><polyline clip-path="url(#clip692)" style="stroke:#009af9; stroke-linecap:round; stroke-linejoin:round; stroke-width:10; stroke-opacity:1; fill:none" points="255.035,857.25 296.598,935.756 338.162,1011.7 379.726,1083.95 421.29,1151.42 462.853,1213.1 504.417,1268.07 545.981,1315.5 587.544,1354.69 629.108,1385.04 670.672,1406.1 712.236,1417.56 753.799,1419.25 795.363,1411.14 836.927,1393.34 878.491,1366.14 920.054,1329.93 961.618,1285.26 1003.18,1232.79 1044.75,1173.32 1086.31,1107.73 1127.87,1037 1169.44,962.202 1211,884.445 1252.56,804.897 1294.13,724.748 1335.69,645.2 1377.26,567.443 1418.82,492.642 1460.38,421.916 1501.95,356.326 1543.51,296.853 1585.07,244.388 1626.64,199.716 1668.2,163.507 1709.77,136.302 1751.33,118.51 1792.89,110.396 1834.46,112.082 1876.02,123.543 1917.58,144.608 1959.15,174.96 2000.71,214.145 2042.27,261.576 2083.84,316.544 2125.4,378.225 2166.97,445.695 2208.53,517.944 2250.09,593.89 2291.66,672.395 "/>
<circle clip-path="url(#clip692)" cx="255.035" cy="818.017" r="18" fill="#e26f46" fill-rule="evenodd" fill-opacity="1" stroke="#000000" stroke-opacity="1" stroke-width="3.2"/>
<circle clip-path="url(#clip692)" cx="481.326" cy="1256.06" r="18" fill="#e26f46" fill-rule="evenodd" fill-opacity="1" stroke="#000000" stroke-opacity="1" stroke-width="3.2"/>
<circle clip-path="url(#clip692)" cx="707.617" cy="1422.61" r="18" fill="#e26f46" fill-rule="evenodd" fill-opacity="1" stroke="#000000" stroke-opacity="1" stroke-width="3.2"/>
<circle clip-path="url(#clip692)" cx="933.909" cy="1302.92" r="18" fill="#e26f46" fill-rule="evenodd" fill-opacity="1" stroke="#000000" stroke-opacity="1" stroke-width="3.2"/>
<circle clip-path="url(#clip692)" cx="1160.2" cy="977.885" r="18" fill="#e26f46" fill-rule="evenodd" fill-opacity="1" stroke="#000000" stroke-opacity="1" stroke-width="3.2"/>
<circle clip-path="url(#clip692)" cx="1386.49" cy="580.183" r="18" fill="#e26f46" fill-rule="evenodd" fill-opacity="1" stroke="#000000" stroke-opacity="1" stroke-width="3.2"/>
<circle clip-path="url(#clip692)" cx="1612.78" cy="185.672" r="18" fill="#e26f46" fill-rule="evenodd" fill-opacity="1" stroke="#000000" stroke-opacity="1" stroke-width="3.2"/>
<circle clip-path="url(#clip692)" cx="1839.07" cy="121.204" r="18" fill="#e26f46" fill-rule="evenodd" fill-opacity="1" stroke="#000000" stroke-opacity="1" stroke-width="3.2"/>
<circle clip-path="url(#clip692)" cx="2065.37" cy="271.623" r="18" fill="#e26f46" fill-rule="evenodd" fill-opacity="1" stroke="#000000" stroke-opacity="1" stroke-width="3.2"/>
<circle clip-path="url(#clip692)" cx="2291.66" cy="675.741" r="18" fill="#e26f46" fill-rule="evenodd" fill-opacity="1" stroke="#000000" stroke-opacity="1" stroke-width="3.2"/>
<path clip-path="url(#clip692)" d="M255.035 839.065 L296.598 927.228 L338.162 1017.56 L379.726 1101.57 L421.29 1177.33 L462.853 1244.74 L504.417 1304.08 L545.981 1354.73 L587.544 1395.02 L629.108 1423.65 L670.672 1440.36 L712.236 1445.72 L753.799 1440.61 L795.363 1425.85 L836.927 1402.03 L878.491 1369.8 L920.054 1330.06 L961.618 1283.93 L1003.18 1232.58 L1044.75 1176.96 L1086.31 1117.65 L1127.87 1054.89 L1169.44 988.701 L1211 918.974 L1252.56 845.676 L1294.13 768.975 L1335.69 689.417 L1377.26 608.053 L1418.82 526.524 L1460.38 447.019 L1501.95 372.095 L1543.51 304.359 L1585.07 246.067 L1626.64 198.786 L1668.2 163.261 L1709.77 139.491 L1751.33 126.945 L1792.89 124.731 L1834.46 131.65 L1876.02 146.276 L1917.58 167.318 L1959.15 194.178 L2000.71 227.409 L2042.27 268.75 L2083.84 320.076 L2125.4 381.598 L2166.97 451.59 L2208.53 527.428 L2250.09 606.943 L2291.66 693.285 L2291.66 654.134 L2250.09 564.75 L2208.53 477.694 L2166.97 400.95 L2125.4 335.389 L2083.84 279.607 L2042.27 231.561 L2000.71 190.122 L1959.15 155.466 L1917.58 127.924 L1876.02 107.47 L1834.46 94.0388 L1792.89 87.9763 L1751.33 90.2926 L1709.77 102.49 L1668.2 125.999 L1626.64 161.61 L1585.07 209.204 L1543.51 267.761 L1501.95 335.55 L1460.38 410.368 L1418.82 489.773 L1377.26 571.311 L1335.69 652.778 L1294.13 732.432 L1252.56 809.132 L1211 882.336 L1169.44 951.959 L1127.87 1018.14 L1086.31 1081 L1044.75 1140.41 L1003.18 1195.98 L961.618 1247.07 L920.054 1292.88 L878.491 1332.54 L836.927 1365.03 L795.363 1389.2 L753.799 1403.86 L712.236 1408.1 L670.672 1401.55 L629.108 1384.26 L587.544 1356.31 L545.981 1317.44 L504.417 1266.89 L462.853 1204.27 L421.29 1131.12 L379.726 1050.93 L338.162 967.827 L296.598 885.035 L255.035 799.913  Z" fill="#3da44d" fill-rule="evenodd" fill-opacity="0.5"/>
<polyline clip-path="url(#clip692)" style="stroke:#3da44d; stroke-linecap:round; stroke-linejoin:round; stroke-width:10; stroke-opacity:1; fill:none" points="255.035,819.489 296.598,906.131 338.162,992.694 379.726,1076.25 421.29,1154.22 462.853,1224.5 504.417,1285.48 545.981,1336.09 587.544,1375.67 629.108,1403.95 670.672,1420.96 712.236,1426.91 753.799,1422.24 795.363,1407.52 836.927,1383.53 878.491,1351.17 920.054,1311.47 961.618,1265.5 1003.18,1214.28 1044.75,1158.69 1086.31,1099.32 1127.87,1036.52 1169.44,970.33 1211,900.655 1252.56,827.404 1294.13,750.704 1335.69,671.097 1377.26,589.682 1418.82,508.148 1460.38,428.694 1501.95,353.822 1543.51,286.06 1585.07,227.635 1626.64,180.198 1668.2,144.63 1709.77,120.991 1751.33,108.619 1792.89,106.354 1834.46,112.844 1876.02,126.873 1917.58,147.621 1959.15,174.822 2000.71,208.766 2042.27,250.155 2083.84,299.842 2125.4,358.494 2166.97,426.27 2208.53,502.561 2250.09,585.847 2291.66,673.709 "/>
<path clip-path="url(#clip690)" d="M265.897 302.578 L581.639 302.578 L581.639 95.2176 L265.897 95.2176  Z" fill="#ffffff" fill-rule="evenodd" fill-opacity="1"/>
<polyline clip-path="url(#clip690)" style="stroke:#000000; stroke-linecap:round; stroke-linejoin:round; stroke-width:4; stroke-opacity:1; fill:none" points="265.897,302.578 581.639,302.578 581.639,95.2176 265.897,95.2176 265.897,302.578 "/>
<polyline clip-path="url(#clip690)" style="stroke:#009af9; stroke-linecap:round; stroke-linejoin:round; stroke-width:10; stroke-opacity:1; fill:none" points="289.884,147.058 433.805,147.058 "/>
<path clip-path="url(#clip690)" d="M465.199 131.051 L465.199 138.412 L473.972 138.412 L473.972 141.722 L465.199 141.722 L465.199 155.796 Q465.199 158.967 466.056 159.87 Q466.935 160.773 469.597 160.773 L473.972 160.773 L473.972 164.338 L469.597 164.338 Q464.667 164.338 462.792 162.509 Q460.917 160.657 460.917 155.796 L460.917 141.722 L457.792 141.722 L457.792 138.412 L460.917 138.412 L460.917 131.051 L465.199 131.051 Z" fill="#000000" fill-rule="nonzero" fill-opacity="1" /><path clip-path="url(#clip690)" d="M494.597 142.393 Q493.88 141.977 493.023 141.791 Q492.19 141.583 491.171 141.583 Q487.56 141.583 485.616 143.944 Q483.694 146.282 483.694 150.68 L483.694 164.338 L479.412 164.338 L479.412 138.412 L483.694 138.412 L483.694 142.44 Q485.037 140.078 487.19 138.944 Q489.343 137.787 492.421 137.787 Q492.861 137.787 493.393 137.856 Q493.926 137.903 494.574 138.018 L494.597 142.393 Z" fill="#000000" fill-rule="nonzero" fill-opacity="1" /><path clip-path="url(#clip690)" d="M498.625 154.106 L498.625 138.412 L502.884 138.412 L502.884 153.944 Q502.884 157.625 504.319 159.476 Q505.754 161.305 508.625 161.305 Q512.074 161.305 514.065 159.106 Q516.078 156.907 516.078 153.111 L516.078 138.412 L520.338 138.412 L520.338 164.338 L516.078 164.338 L516.078 160.356 Q514.528 162.717 512.467 163.875 Q510.43 165.009 507.722 165.009 Q503.254 165.009 500.94 162.231 Q498.625 159.453 498.625 154.106 M509.342 137.787 L509.342 137.787 Z" fill="#000000" fill-rule="nonzero" fill-opacity="1" /><path clip-path="url(#clip690)" d="M551.287 150.31 L551.287 152.393 L531.703 152.393 Q531.981 156.791 534.342 159.106 Q536.727 161.398 540.963 161.398 Q543.416 161.398 545.708 160.796 Q548.023 160.194 550.291 158.99 L550.291 163.018 Q548 163.99 545.592 164.5 Q543.185 165.009 540.708 165.009 Q534.504 165.009 530.87 161.398 Q527.259 157.787 527.259 151.629 Q527.259 145.264 530.685 141.537 Q534.134 137.787 539.967 137.787 Q545.199 137.787 548.231 141.166 Q551.287 144.523 551.287 150.31 M547.027 149.06 Q546.981 145.565 545.06 143.481 Q543.162 141.398 540.014 141.398 Q536.449 141.398 534.296 143.412 Q532.166 145.426 531.842 149.083 L547.027 149.06 Z" fill="#000000" fill-rule="nonzero" fill-opacity="1" /><circle clip-path="url(#clip690)" cx="361.844" cy="198.898" r="20.9455" fill="#e26f46" fill-rule="evenodd" fill-opacity="1" stroke="#000000" stroke-opacity="1" stroke-width="3.72364"/>
<path clip-path="url(#clip690)" d="M476.704 194.187 L476.704 180.159 L480.963 180.159 L480.963 216.178 L476.704 216.178 L476.704 212.289 Q475.361 214.603 473.301 215.738 Q471.264 216.849 468.394 216.849 Q463.695 216.849 460.732 213.099 Q457.792 209.349 457.792 203.238 Q457.792 197.127 460.732 193.377 Q463.695 189.627 468.394 189.627 Q471.264 189.627 473.301 190.761 Q475.361 191.872 476.704 194.187 M462.19 203.238 Q462.19 207.937 464.111 210.622 Q466.056 213.284 469.435 213.284 Q472.815 213.284 474.759 210.622 Q476.704 207.937 476.704 203.238 Q476.704 198.539 474.759 195.877 Q472.815 193.192 469.435 193.192 Q466.056 193.192 464.111 195.877 Q462.19 198.539 462.19 203.238 Z" fill="#000000" fill-rule="nonzero" fill-opacity="1" /><path clip-path="url(#clip690)" d="M501.518 203.145 Q496.356 203.145 494.366 204.326 Q492.375 205.506 492.375 208.354 Q492.375 210.622 493.856 211.965 Q495.361 213.284 497.93 213.284 Q501.472 213.284 503.602 210.784 Q505.754 208.261 505.754 204.094 L505.754 203.145 L501.518 203.145 M510.014 201.386 L510.014 216.178 L505.754 216.178 L505.754 212.242 Q504.296 214.603 502.12 215.738 Q499.944 216.849 496.796 216.849 Q492.815 216.849 490.454 214.627 Q488.116 212.381 488.116 208.631 Q488.116 204.256 491.032 202.034 Q493.972 199.812 499.782 199.812 L505.754 199.812 L505.754 199.395 Q505.754 196.455 503.81 194.858 Q501.889 193.238 498.393 193.238 Q496.171 193.238 494.065 193.77 Q491.958 194.303 490.014 195.367 L490.014 191.432 Q492.352 190.53 494.551 190.09 Q496.75 189.627 498.833 189.627 Q504.458 189.627 507.236 192.543 Q510.014 195.46 510.014 201.386 Z" fill="#000000" fill-rule="nonzero" fill-opacity="1" /><path clip-path="url(#clip690)" d="M523 182.891 L523 190.252 L531.773 190.252 L531.773 193.562 L523 193.562 L523 207.636 Q523 210.807 523.856 211.71 Q524.736 212.613 527.398 212.613 L531.773 212.613 L531.773 216.178 L527.398 216.178 Q522.467 216.178 520.592 214.349 Q518.717 212.497 518.717 207.636 L518.717 193.562 L515.592 193.562 L515.592 190.252 L518.717 190.252 L518.717 182.891 L523 182.891 Z" fill="#000000" fill-rule="nonzero" fill-opacity="1" /><path clip-path="url(#clip690)" d="M549.157 203.145 Q543.995 203.145 542.004 204.326 Q540.014 205.506 540.014 208.354 Q540.014 210.622 541.495 211.965 Q543 213.284 545.569 213.284 Q549.111 213.284 551.24 210.784 Q553.393 208.261 553.393 204.094 L553.393 203.145 L549.157 203.145 M557.652 201.386 L557.652 216.178 L553.393 216.178 L553.393 212.242 Q551.935 214.603 549.759 215.738 Q547.583 216.849 544.435 216.849 Q540.453 216.849 538.092 214.627 Q535.754 212.381 535.754 208.631 Q535.754 204.256 538.671 202.034 Q541.611 199.812 547.421 199.812 L553.393 199.812 L553.393 199.395 Q553.393 196.455 551.449 194.858 Q549.527 193.238 546.032 193.238 Q543.81 193.238 541.703 193.77 Q539.597 194.303 537.652 195.367 L537.652 191.432 Q539.99 190.53 542.189 190.09 Q544.389 189.627 546.472 189.627 Q552.097 189.627 554.875 192.543 Q557.652 195.46 557.652 201.386 Z" fill="#000000" fill-rule="nonzero" fill-opacity="1" /><polyline clip-path="url(#clip690)" style="stroke:#3da44d; stroke-linecap:round; stroke-linejoin:round; stroke-width:10; stroke-opacity:1; fill:none" points="289.884,250.738 433.805,250.738 "/>
<path clip-path="url(#clip690)" d="M483.347 263.087 L483.347 253.805 L475.708 253.805 L475.708 249.962 L487.977 249.962 L487.977 264.8 Q485.268 266.721 482.005 267.717 Q478.741 268.689 475.037 268.689 Q466.935 268.689 462.352 263.967 Q457.792 259.221 457.792 250.772 Q457.792 242.3 462.352 237.578 Q466.935 232.833 475.037 232.833 Q478.417 232.833 481.449 233.666 Q484.505 234.499 487.074 236.12 L487.074 241.096 Q484.481 238.897 481.565 237.786 Q478.648 236.675 475.431 236.675 Q469.088 236.675 465.894 240.217 Q462.722 243.758 462.722 250.772 Q462.722 257.763 465.894 261.305 Q469.088 264.846 475.431 264.846 Q477.907 264.846 479.852 264.43 Q481.796 263.99 483.347 263.087 Z" fill="#000000" fill-rule="nonzero" fill-opacity="1" /><path clip-path="url(#clip690)" d="M501.194 237.3 L501.194 250.286 L507.074 250.286 Q510.338 250.286 512.12 248.596 Q513.903 246.907 513.903 243.782 Q513.903 240.68 512.12 238.99 Q510.338 237.3 507.074 237.3 L501.194 237.3 M496.518 233.458 L507.074 233.458 Q512.884 233.458 515.847 236.096 Q518.833 238.712 518.833 243.782 Q518.833 248.897 515.847 251.513 Q512.884 254.129 507.074 254.129 L501.194 254.129 L501.194 268.018 L496.518 268.018 L496.518 233.458 Z" fill="#000000" fill-rule="nonzero" fill-opacity="1" /></svg>
