<?xml version="1.0" encoding="utf-8"?>
<svg xmlns="http://www.w3.org/2000/svg" xmlns:xlink="http://www.w3.org/1999/xlink" width="600" height="400" viewBox="0 0 2400 1600">
<defs>
  <clipPath id="clip920">
    <rect x="0" y="0" width="2400" height="1600"/>
  </clipPath>
</defs>
<path clip-path="url(#clip920)" d="M0 1600 L2400 1600 L2400 0 L0 0  Z" fill="#ffffff" fill-rule="evenodd" fill-opacity="1"/>
<defs>
  <clipPath id="clip921">
    <rect x="480" y="0" width="1681" height="1600"/>
  </clipPath>
</defs>
<path clip-path="url(#clip920)" d="M211.325 1423.18 L2352.76 1423.18 L2352.76 47.2441 L211.325 47.2441  Z" fill="#ffffff" fill-rule="evenodd" fill-opacity="1"/>
<defs>
  <clipPath id="clip922">
    <rect x="211" y="47" width="2142" height="1377"/>
  </clipPath>
</defs>
<polyline clip-path="url(#clip922)" style="stroke:#000000; stroke-linecap:round; stroke-linejoin:round; stroke-width:2; stroke-opacity:0.1; fill:none" points="331.335,1423.18 331.335,47.2441 "/>
<polyline clip-path="url(#clip922)" style="stroke:#000000; stroke-linecap:round; stroke-linejoin:round; stroke-width:2; stroke-opacity:0.1; fill:none" points="806.569,1423.18 806.569,47.2441 "/>
<polyline clip-path="url(#clip922)" style="stroke:#000000; stroke-linecap:round; stroke-linejoin:round; stroke-width:2; stroke-opacity:0.1; fill:none" points="1281.8,1423.18 1281.8,47.2441 "/>
<polyline clip-path="url(#clip922)" style="stroke:#000000; stroke-linecap:round; stroke-linejoin:round; stroke-width:2; stroke-opacity:0.1; fill:none" points="1757.04,1423.18 1757.04,47.2441 "/>
<polyline clip-path="url(#clip922)" style="stroke:#000000; stroke-linecap:round; stroke-linejoin:round; stroke-width:2; stroke-opacity:0.1; fill:none" points="2232.27,1423.18 2232.27,47.2441 "/>
<polyline clip-path="url(#clip920)" style="stroke:#000000; stroke-linecap:round; stroke-linejoin:round; stroke-width:4; stroke-opacity:1; fill:none" points="211.325,1423.18 2352.76,1423.18 "/>
<polyline clip-path="url(#clip920)" style="stroke:#000000; stroke-linecap:round; stroke-linejoin:round; stroke-width:4; stroke-opacity:1; fill:none" points="331.335,1423.18 331.335,1404.28 "/>
<polyline clip-path="url(#clip920)" style="stroke:#000000; stroke-linecap:round; stroke-linejoin:round; stroke-width:4; stroke-opacity:1; fill:none" points="806.569,1423.18 806.569,1404.28 "/>
<polyline clip-path="url(#clip920)" style="stroke:#000000; stroke-linecap:round; stroke-linejoin:round; stroke-width:4; stroke-opacity:1; fill:none" points="1281.8,1423.18 1281.8,1404.28 "/>
<polyline clip-path="url(#clip920)" style="stroke:#000000; stroke-linecap:round; stroke-linejoin:round; stroke-width:4; stroke-opacity:1; fill:none" points="1757.04,1423.18 1757.04,1404.28 "/>
<polyline clip-path="url(#clip920)" style="stroke:#000000; stroke-linecap:round; stroke-linejoin:round; stroke-width:4; stroke-opacity:1; fill:none" points="2232.27,1423.18 2232.27,1404.28 "/>
<path clip-path="url(#clip920)" d="M300.236 1468.75 L329.912 1468.75 L329.912 1472.69 L300.236 1472.69 L300.236 1468.75 Z" fill="#000000" fill-rule="nonzero" fill-opacity="1" /><path clip-path="url(#clip920)" d="M352.851 1455.09 L341.046 1473.54 L352.851 1473.54 L352.851 1455.09 M351.625 1451.02 L357.504 1451.02 L357.504 1473.54 L362.435 1473.54 L362.435 1477.43 L357.504 1477.43 L357.504 1485.58 L352.851 1485.58 L352.851 1477.43 L337.25 1477.43 L337.25 1472.92 L351.625 1451.02 Z" fill="#000000" fill-rule="nonzero" fill-opacity="1" /><path clip-path="url(#clip920)" d="M776.511 1468.75 L806.187 1468.75 L806.187 1472.69 L776.511 1472.69 L776.511 1468.75 Z" fill="#000000" fill-rule="nonzero" fill-opacity="1" /><path clip-path="url(#clip920)" d="M820.307 1481.64 L836.627 1481.64 L836.627 1485.58 L814.682 1485.58 L814.682 1481.64 Q817.344 1478.89 821.928 1474.26 Q826.534 1469.61 827.715 1468.27 Q829.96 1465.74 830.84 1464.01 Q831.743 1462.25 831.743 1460.56 Q831.743 1457.8 829.798 1456.07 Q827.877 1454.33 824.775 1454.33 Q822.576 1454.33 820.122 1455.09 Q817.692 1455.86 814.914 1457.41 L814.914 1452.69 Q817.738 1451.55 820.192 1450.97 Q822.645 1450.39 824.682 1450.39 Q830.053 1450.39 833.247 1453.08 Q836.442 1455.77 836.442 1460.26 Q836.442 1462.39 835.631 1464.31 Q834.844 1466.2 832.738 1468.8 Q832.159 1469.47 829.057 1472.69 Q825.955 1475.88 820.307 1481.64 Z" fill="#000000" fill-rule="nonzero" fill-opacity="1" /><path clip-path="url(#clip920)" d="M1281.8 1454.1 Q1278.19 1454.1 1276.36 1457.66 Q1274.56 1461.2 1274.56 1468.33 Q1274.56 1475.44 1276.36 1479.01 Q1278.19 1482.55 1281.8 1482.55 Q1285.44 1482.55 1287.24 1479.01 Q1289.07 1475.44 1289.07 1468.33 Q1289.07 1461.2 1287.24 1457.66 Q1285.44 1454.1 1281.8 1454.1 M1281.8 1450.39 Q1287.61 1450.39 1290.67 1455 Q1293.75 1459.58 1293.75 1468.33 Q1293.75 1477.06 1290.67 1481.67 Q1287.61 1486.25 1281.8 1486.25 Q1275.99 1486.25 1272.91 1481.67 Q1269.86 1477.06 1269.86 1468.33 Q1269.86 1459.58 1272.91 1455 Q1275.99 1450.39 1281.8 1450.39 Z" fill="#000000" fill-rule="nonzero" fill-opacity="1" /><path clip-path="url(#clip920)" d="M1751.69 1481.64 L1768.01 1481.64 L1768.01 1485.58 L1746.06 1485.58 L1746.06 1481.64 Q1748.73 1478.89 1753.31 1474.26 Q1757.92 1469.61 1759.1 1468.27 Q1761.34 1465.74 1762.22 1464.01 Q1763.12 1462.25 1763.12 1460.56 Q1763.12 1457.8 1761.18 1456.07 Q1759.26 1454.33 1756.16 1454.33 Q1753.96 1454.33 1751.5 1455.09 Q1749.07 1455.86 1746.3 1457.41 L1746.3 1452.69 Q1749.12 1451.55 1751.57 1450.97 Q1754.03 1450.39 1756.06 1450.39 Q1761.43 1450.39 1764.63 1453.08 Q1767.82 1455.77 1767.82 1460.26 Q1767.82 1462.39 1767.01 1464.31 Q1766.23 1466.2 1764.12 1468.8 Q1763.54 1469.47 1760.44 1472.69 Q1757.34 1475.88 1751.69 1481.64 Z" fill="#000000" fill-rule="nonzero" fill-opacity="1" /><path clip-path="url(#clip920)" d="M2235.28 1455.09 L2223.47 1473.54 L2235.28 1473.54 L2235.28 1455.09 M2234.05 1451.02 L2239.93 1451.02 L2239.93 1473.54 L2244.86 1473.54 L2244.86 1477.43 L2239.93 1477.43 L2239.93 1485.58 L2235.28 1485.58 L2235.28 1477.43 L2219.68 1477.43 L2219.68 1472.92 L2234.05 1451.02 Z" fill="#000000" fill-rule="nonzero" fill-opacity="1" /><path clip-path="url(#clip920)" d="M1298.65 1532.4 L1285.76 1549.74 L1299.32 1568.04 L1292.42 1568.04 L1282.04 1554.04 L1271.66 1568.04 L1264.76 1568.04 L1278.6 1549.39 L1265.94 1532.4 L1272.84 1532.4 L1282.29 1545.1 L1291.75 1532.4 L1298.65 1532.4 Z" fill="#000000" fill-rule="nonzero" fill-opacity="1" /><polyline clip-path="url(#clip922)" style="stroke:#000000; stroke-linecap:round; stroke-linejoin:round; stroke-width:2; stroke-opacity:0.1; fill:none" points="211.325,1328.39 2352.76,1328.39 "/>
<polyline clip-path="url(#clip922)" style="stroke:#000000; stroke-linecap:round; stroke-linejoin:round; stroke-width:2; stroke-opacity:0.1; fill:none" points="211.325,1133.37 2352.76,1133.37 "/>
<polyline clip-path="url(#clip922)" style="stroke:#000000; stroke-linecap:round; stroke-linejoin:round; stroke-width:2; stroke-opacity:0.1; fill:none" points="211.325,938.355 2352.76,938.355 "/>
<polyline clip-path="url(#clip922)" style="stroke:#000000; stroke-linecap:round; stroke-linejoin:round; stroke-width:2; stroke-opacity:0.1; fill:none" points="211.325,743.336 2352.76,743.336 "/>
<polyline clip-path="url(#clip922)" style="stroke:#000000; stroke-linecap:round; stroke-linejoin:round; stroke-width:2; stroke-opacity:0.1; fill:none" points="211.325,548.317 2352.76,548.317 "/>
<polyline clip-path="url(#clip922)" style="stroke:#000000; stroke-linecap:round; stroke-linejoin:round; stroke-width:2; stroke-opacity:0.1; fill:none" points="211.325,353.299 2352.76,353.299 "/>
<polyline clip-path="url(#clip922)" style="stroke:#000000; stroke-linecap:round; stroke-linejoin:round; stroke-width:2; stroke-opacity:0.1; fill:none" points="211.325,158.28 2352.76,158.28 "/>
<polyline clip-path="url(#clip920)" style="stroke:#000000; stroke-linecap:round; stroke-linejoin:round; stroke-width:4; stroke-opacity:1; fill:none" points="211.325,1423.18 211.325,47.2441 "/>
<polyline clip-path="url(#clip920)" style="stroke:#000000; stroke-linecap:round; stroke-linejoin:round; stroke-width:4; stroke-opacity:1; fill:none" points="211.325,1328.39 230.222,1328.39 "/>
<polyline clip-path="url(#clip920)" style="stroke:#000000; stroke-linecap:round; stroke-linejoin:round; stroke-width:4; stroke-opacity:1; fill:none" points="211.325,1133.37 230.222,1133.37 "/>
<polyline clip-path="url(#clip920)" style="stroke:#000000; stroke-linecap:round; stroke-linejoin:round; stroke-width:4; stroke-opacity:1; fill:none" points="211.325,938.355 230.222,938.355 "/>
<polyline clip-path="url(#clip920)" style="stroke:#000000; stroke-linecap:round; stroke-linejoin:round; stroke-width:4; stroke-opacity:1; fill:none" points="211.325,743.336 230.222,743.336 "/>
<polyline clip-path="url(#clip920)" style="stroke:#000000; stroke-linecap:round; stroke-linejoin:round; stroke-width:4; stroke-opacity:1; fill:none" points="211.325,548.317 230.222,548.317 "/>
<polyline clip-path="url(#clip920)" style="stroke:#000000; stroke-linecap:round; stroke-linejoin:round; stroke-width:4; stroke-opacity:1; fill:none" points="211.325,353.299 230.222,353.299 "/>
<polyline clip-path="url(#clip920)" style="stroke:#000000; stroke-linecap:round; stroke-linejoin:round; stroke-width:4; stroke-opacity:1; fill:none" points="211.325,158.28 230.222,158.28 "/>
<path clip-path="url(#clip920)" d="M114.26 1328.84 L143.936 1328.84 L143.936 1332.78 L114.26 1332.78 L114.26 1328.84 Z" fill="#000000" fill-rule="nonzero" fill-opacity="1" /><path clip-path="url(#clip920)" d="M168.195 1327.04 Q171.552 1327.76 173.427 1330.02 Q175.325 1332.29 175.325 1335.63 Q175.325 1340.74 171.806 1343.54 Q168.288 1346.34 161.806 1346.34 Q159.63 1346.34 157.315 1345.9 Q155.024 1345.49 152.57 1344.63 L152.57 1340.12 Q154.515 1341.25 156.829 1341.83 Q159.144 1342.41 161.667 1342.41 Q166.065 1342.41 168.357 1340.67 Q170.672 1338.94 170.672 1335.63 Q170.672 1332.57 168.519 1330.86 Q166.39 1329.12 162.57 1329.12 L158.542 1329.12 L158.542 1325.28 L162.755 1325.28 Q166.204 1325.28 168.033 1323.91 Q169.862 1322.52 169.862 1319.93 Q169.862 1317.27 167.964 1315.86 Q166.089 1314.42 162.57 1314.42 Q160.649 1314.42 158.45 1314.84 Q156.251 1315.26 153.612 1316.14 L153.612 1311.97 Q156.274 1311.23 158.589 1310.86 Q160.927 1310.49 162.987 1310.49 Q168.311 1310.49 171.413 1312.92 Q174.514 1315.33 174.514 1319.45 Q174.514 1322.32 172.871 1324.31 Q171.227 1326.27 168.195 1327.04 Z" fill="#000000" fill-rule="nonzero" fill-opacity="1" /><path clip-path="url(#clip920)" d="M115.209 1133.83 L144.885 1133.83 L144.885 1137.76 L115.209 1137.76 L115.209 1133.83 Z" fill="#000000" fill-rule="nonzero" fill-opacity="1" /><path clip-path="url(#clip920)" d="M159.005 1146.72 L175.325 1146.72 L175.325 1150.65 L153.38 1150.65 L153.38 1146.72 Q156.042 1143.96 160.626 1139.33 Q165.232 1134.68 166.413 1133.34 Q168.658 1130.82 169.538 1129.08 Q170.44 1127.32 170.44 1125.63 Q170.44 1122.88 168.496 1121.14 Q166.575 1119.4 163.473 1119.4 Q161.274 1119.4 158.82 1120.17 Q156.39 1120.93 153.612 1122.48 L153.612 1117.76 Q156.436 1116.63 158.89 1116.05 Q161.343 1115.47 163.38 1115.47 Q168.751 1115.47 171.945 1118.15 Q175.139 1120.84 175.139 1125.33 Q175.139 1127.46 174.329 1129.38 Q173.542 1131.28 171.436 1133.87 Q170.857 1134.54 167.755 1137.76 Q164.653 1140.95 159.005 1146.72 Z" fill="#000000" fill-rule="nonzero" fill-opacity="1" /><path clip-path="url(#clip920)" d="M114.839 938.806 L144.515 938.806 L144.515 942.741 L114.839 942.741 L114.839 938.806 Z" fill="#000000" fill-rule="nonzero" fill-opacity="1" /><path clip-path="url(#clip920)" d="M155.417 951.7 L163.056 951.7 L163.056 925.334 L154.746 927.001 L154.746 922.742 L163.01 921.075 L167.686 921.075 L167.686 951.7 L175.325 951.7 L175.325 955.635 L155.417 955.635 L155.417 951.7 Z" fill="#000000" fill-rule="nonzero" fill-opacity="1" /><path clip-path="url(#clip920)" d="M163.38 729.135 Q159.769 729.135 157.94 732.7 Q156.135 736.241 156.135 743.371 Q156.135 750.477 157.94 754.042 Q159.769 757.584 163.38 757.584 Q167.015 757.584 168.82 754.042 Q170.649 750.477 170.649 743.371 Q170.649 736.241 168.82 732.7 Q167.015 729.135 163.38 729.135 M163.38 725.431 Q169.19 725.431 172.246 730.038 Q175.325 734.621 175.325 743.371 Q175.325 752.098 172.246 756.704 Q169.19 761.287 163.38 761.287 Q157.57 761.287 154.491 756.704 Q151.436 752.098 151.436 743.371 Q151.436 734.621 154.491 730.038 Q157.57 725.431 163.38 725.431 Z" fill="#000000" fill-rule="nonzero" fill-opacity="1" /><path clip-path="url(#clip920)" d="M155.417 561.662 L163.056 561.662 L163.056 535.297 L154.746 536.963 L154.746 532.704 L163.01 531.037 L167.686 531.037 L167.686 561.662 L175.325 561.662 L175.325 565.597 L155.417 565.597 L155.417 561.662 Z" fill="#000000" fill-rule="nonzero" fill-opacity="1" /><path clip-path="url(#clip920)" d="M159.005 366.643 L175.325 366.643 L175.325 370.579 L153.38 370.579 L153.38 366.643 Q156.042 363.889 160.626 359.259 Q165.232 354.606 166.413 353.264 Q168.658 350.741 169.538 349.005 Q170.44 347.245 170.44 345.556 Q170.44 342.801 168.496 341.065 Q166.575 339.329 163.473 339.329 Q161.274 339.329 158.82 340.093 Q156.39 340.856 153.612 342.407 L153.612 337.685 Q156.436 336.551 158.89 335.972 Q161.343 335.394 163.38 335.394 Q168.751 335.394 171.945 338.079 Q175.139 340.764 175.139 345.255 Q175.139 347.384 174.329 349.306 Q173.542 351.204 171.436 353.796 Q170.857 354.468 167.755 357.685 Q164.653 360.88 159.005 366.643 Z" fill="#000000" fill-rule="nonzero" fill-opacity="1" /><path clip-path="url(#clip920)" d="M168.195 156.926 Q171.552 157.643 173.427 159.912 Q175.325 162.18 175.325 165.514 Q175.325 170.629 171.806 173.43 Q168.288 176.231 161.806 176.231 Q159.63 176.231 157.315 175.791 Q155.024 175.375 152.57 174.518 L152.57 170.004 Q154.515 171.139 156.829 171.717 Q159.144 172.296 161.667 172.296 Q166.065 172.296 168.357 170.56 Q170.672 168.824 170.672 165.514 Q170.672 162.458 168.519 160.745 Q166.39 159.009 162.57 159.009 L158.542 159.009 L158.542 155.166 L162.755 155.166 Q166.204 155.166 168.033 153.801 Q169.862 152.412 169.862 149.819 Q169.862 147.157 167.964 145.745 Q166.089 144.31 162.57 144.31 Q160.649 144.31 158.45 144.727 Q156.251 145.143 153.612 146.023 L153.612 141.856 Q156.274 141.116 158.589 140.745 Q160.927 140.375 162.987 140.375 Q168.311 140.375 171.413 142.805 Q174.514 145.213 174.514 149.333 Q174.514 152.203 172.871 154.194 Q171.227 156.162 168.195 156.926 Z" fill="#000000" fill-rule="nonzero" fill-opacity="1" /><path clip-path="url(#clip920)" d="M14.479 765.163 L19.3487 765.163 L19.3487 770.764 Q19.3487 773.915 20.6219 775.157 Q21.895 776.366 25.2052 776.366 L28.3562 776.366 L28.3562 766.722 L32.9077 766.722 L32.9077 776.366 L64.0042 776.366 L64.0042 782.255 L32.9077 782.255 L32.9077 787.856 L28.3562 787.856 L28.3562 782.255 L25.8736 782.255 Q19.9216 782.255 17.2162 779.485 Q14.479 776.716 14.479 770.701 L14.479 765.163 Z" fill="#000000" fill-rule="nonzero" fill-opacity="1" /><path clip-path="url(#clip920)" d="M14.5426 746.193 Q21.8632 750.458 29.0246 752.527 Q36.186 754.596 43.5384 754.596 Q50.8908 754.596 58.1159 752.527 Q65.3091 750.426 72.5979 746.193 L72.5979 751.285 Q65.1182 756.06 57.8931 758.447 Q50.668 760.802 43.5384 760.802 Q36.4406 760.802 29.2474 758.447 Q22.0542 756.091 14.5426 751.285 L14.5426 746.193 Z" fill="#000000" fill-rule="nonzero" fill-opacity="1" /><path clip-path="url(#clip920)" d="M28.3562 705.198 L45.7028 718.088 L64.0042 704.529 L64.0042 711.436 L49.9996 721.812 L64.0042 732.188 L64.0042 739.095 L45.3526 725.25 L28.3562 737.917 L28.3562 731.011 L41.0558 721.558 L28.3562 712.104 L28.3562 705.198 Z" fill="#000000" fill-rule="nonzero" fill-opacity="1" /><path clip-path="url(#clip920)" d="M14.5426 697.177 L14.5426 692.084 Q22.0542 687.31 29.2474 684.955 Q36.4406 682.568 43.5384 682.568 Q50.668 682.568 57.8931 684.955 Q65.1182 687.31 72.5979 692.084 L72.5979 697.177 Q65.3091 692.944 58.1159 690.875 Q50.8908 688.774 43.5384 688.774 Q36.186 688.774 29.0246 690.875 Q21.8632 692.944 14.5426 697.177 Z" fill="#000000" fill-rule="nonzero" fill-opacity="1" /><polyline clip-path="url(#clip922)" style="stroke:#009af9; stroke-linecap:round; stroke-linejoin:round; stroke-width:4; stroke-opacity:1; fill:none" points="271.931,373.606 292.337,320.071 312.744,272.109 333.15,229.934 353.556,193.703 373.962,163.513 394.369,139.4 414.775,121.345 435.181,109.271 455.587,103.045 475.994,102.484 496.4,107.356 516.806,117.384 537.212,132.25 557.619,151.596 578.025,175.035 598.431,202.148 618.837,232.497 639.244,265.621 659.65,301.049 680.056,338.301 700.462,376.895 720.869,416.35 741.275,456.192 761.681,495.961 782.087,535.212 802.494,573.521 822.9,610.49 843.306,645.749 863.712,678.963 884.119,709.829 904.525,738.084 924.931,763.506 945.337,785.912 965.743,805.166 986.15,821.174 1006.56,833.887 1026.96,843.3 1047.37,849.453 1067.77,852.427 1088.18,852.345 1108.59,849.37 1128.99,843.699 1149.4,835.565 1169.81,825.232 1190.21,812.991 1210.62,799.157 1231.02,784.063 1251.43,768.06 1271.84,751.508 1292.24,734.775 1312.65,718.232 1333.06,702.246 1353.46,687.177 1373.87,673.376 1394.27,661.176 1414.68,650.891 1435.09,642.812 1455.49,637.202 1475.9,634.291 1496.31,634.279 1516.71,637.326 1537.12,643.554 1557.52,653.044 1577.93,665.834 1598.34,681.918 1618.74,701.247 1639.15,723.725 1659.56,749.214 1679.96,777.533 1700.37,808.457 1720.77,841.722 1741.18,877.026 1761.59,914.03 1781.99,952.366 1802.4,991.633 1822.81,1031.41 1843.21,1071.25 1863.62,1110.69 1884.02,1149.26 1904.43,1186.47 1924.84,1221.85 1945.24,1254.92 1965.65,1285.19 1986.06,1312.23 2006.46,1335.57 2026.87,1354.82 2047.27,1369.58 2067.68,1379.49 2088.09,1384.24 2108.49,1383.55 2128.9,1377.19 2149.31,1364.97 2169.71,1346.78 2190.12,1322.53 2210.52,1292.19 2230.93,1255.82 2251.34,1213.51 2271.74,1165.42 2292.15,1111.76 "/>
<circle clip-path="url(#clip922)" cx="568.952" cy="153.55" r="14.4" fill="#e26f46" fill-rule="evenodd" fill-opacity="1" stroke="#000000" stroke-opacity="1" stroke-width="3.2"/>
<circle clip-path="url(#clip922)" cx="727.363" cy="429.017" r="14.4" fill="#e26f46" fill-rule="evenodd" fill-opacity="1" stroke="#000000" stroke-opacity="1" stroke-width="3.2"/>
<circle clip-path="url(#clip922)" cx="885.775" cy="709.345" r="14.4" fill="#e26f46" fill-rule="evenodd" fill-opacity="1" stroke="#000000" stroke-opacity="1" stroke-width="3.2"/>
<circle clip-path="url(#clip922)" cx="1044.19" cy="823.396" r="14.4" fill="#e26f46" fill-rule="evenodd" fill-opacity="1" stroke="#000000" stroke-opacity="1" stroke-width="3.2"/>
<circle clip-path="url(#clip922)" cx="1202.6" cy="808.313" r="14.4" fill="#e26f46" fill-rule="evenodd" fill-opacity="1" stroke="#000000" stroke-opacity="1" stroke-width="3.2"/>
<circle clip-path="url(#clip922)" cx="1361.01" cy="704.323" r="14.4" fill="#e26f46" fill-rule="evenodd" fill-opacity="1" stroke="#000000" stroke-opacity="1" stroke-width="3.2"/>
<circle clip-path="url(#clip922)" cx="1519.42" cy="624.464" r="14.4" fill="#e26f46" fill-rule="evenodd" fill-opacity="1" stroke="#000000" stroke-opacity="1" stroke-width="3.2"/>
<circle clip-path="url(#clip922)" cx="1677.83" cy="733.275" r="14.4" fill="#e26f46" fill-rule="evenodd" fill-opacity="1" stroke="#000000" stroke-opacity="1" stroke-width="3.2"/>
<circle clip-path="url(#clip922)" cx="1836.24" cy="1080.85" r="14.4" fill="#e26f46" fill-rule="evenodd" fill-opacity="1" stroke="#000000" stroke-opacity="1" stroke-width="3.2"/>
<circle clip-path="url(#clip922)" cx="1994.65" cy="1297.72" r="14.4" fill="#e26f46" fill-rule="evenodd" fill-opacity="1" stroke="#000000" stroke-opacity="1" stroke-width="3.2"/>
<path clip-path="url(#clip922)" d="M271.931 547.47 L292.337 505.325 L312.744 462.441 L333.15 419.506 L353.556 377.288 L373.962 336.614 L394.369 298.35 L414.775 263.369 L435.181 232.528 L455.587 206.637 L475.994 186.432 L496.4 172.561 L516.806 165.569 L537.212 165.9 L557.619 173.851 L578.025 189.402 L598.431 211.928 L618.837 240.242 L639.244 273.046 L659.65 309.233 L680.056 347.894 L700.462 388.249 L720.869 429.59 L741.275 471.259 L761.681 512.623 L782.087 553.075 L802.494 592.034 L822.9 628.966 L843.306 663.413 L863.712 695.017 L884.119 723.534 L904.525 748.835 L924.931 770.896 L945.337 789.781 L965.743 805.613 L986.15 818.558 L1006.56 828.802 L1026.96 836.537 L1047.37 841.948 L1067.77 845.212 L1088.18 846.487 L1108.59 845.913 L1128.99 843.613 L1149.4 839.688 L1169.81 834.224 L1190.21 827.29 L1210.62 818.951 L1231.02 809.267 L1251.43 798.311 L1271.84 786.175 L1292.24 772.979 L1312.65 758.883 L1333.06 744.092 L1353.46 728.863 L1373.87 713.502 L1394.27 698.37 L1414.68 683.874 L1435.09 670.467 L1455.49 658.637 L1475.9 648.897 L1496.31 641.773 L1516.71 637.786 L1537.12 637.428 L1557.52 641.144 L1577.93 649.305 L1598.34 662.181 L1618.74 679.924 L1639.15 702.552 L1659.56 729.94 L1679.96 761.824 L1700.37 797.809 L1720.77 837.374 L1741.18 879.892 L1761.59 924.638 L1781.99 970.792 L1802.4 1017.45 L1822.81 1063.62 L1843.21 1108.28 L1863.62 1150.39 L1884.02 1188.96 L1904.43 1223.13 L1924.84 1252.27 L1945.24 1276.01 L1965.65 1294.44 L1986.06 1308.07 L2006.46 1317.55 L2026.87 1323.26 L2047.27 1325.25 L2067.68 1323.53 L2088.09 1318.23 L2108.49 1309.59 L2128.9 1297.94 L2149.31 1283.67 L2169.71 1267.19 L2190.12 1248.94 L2210.52 1229.35 L2230.93 1208.84 L2251.34 1187.8 L2271.74 1166.61 L2292.15 1145.6 L2292.15 838.006 L2271.74 875.29 L2251.34 914.455 L2230.93 955.019 L2210.52 996.393 L2190.12 1037.89 L2169.71 1078.73 L2149.31 1118.07 L2128.9 1155.01 L2108.49 1188.64 L2088.09 1218.03 L2067.68 1242.28 L2047.27 1260.53 L2026.87 1271.96 L2006.46 1275.88 L1986.06 1271.86 L1965.65 1260.1 L1945.24 1241.38 L1924.84 1216.63 L1904.43 1186.69 L1884.02 1152.25 L1863.62 1113.96 L1843.21 1072.53 L1822.81 1028.7 L1802.4 983.278 L1781.99 937.154 L1761.59 891.263 L1741.18 846.553 L1720.77 803.937 L1700.37 764.244 L1679.96 728.174 L1659.56 696.283 L1639.15 668.963 L1618.74 646.452 L1598.34 628.834 L1577.93 616.061 L1557.52 607.962 L1537.12 604.266 L1516.71 604.614 L1496.31 608.579 L1475.9 615.683 L1455.49 625.415 L1435.09 637.252 L1414.68 650.676 L1394.27 665.193 L1373.87 680.344 L1353.46 695.715 L1333.06 710.948 L1312.65 725.738 L1292.24 739.832 L1271.84 753.028 L1251.43 765.166 L1231.02 776.123 L1210.62 785.803 L1190.21 794.132 L1169.81 801.048 L1149.4 806.491 L1128.99 810.398 L1108.59 812.69 L1088.18 813.271 L1067.77 812.017 L1047.37 808.777 L1026.96 803.376 L1006.56 795.621 L986.15 785.316 L965.743 772.269 L945.337 756.311 L924.931 737.31 L904.525 715.178 L884.119 689.882 L863.712 661.449 L843.306 629.974 L822.9 595.625 L802.494 558.661 L782.087 519.446 L761.681 478.469 L741.275 436.356 L720.869 393.862 L700.462 351.839 L680.056 311.184 L659.65 272.776 L639.244 237.389 L618.837 205.587 L598.431 177.598 L578.025 153.274 L557.619 132.352 L537.212 114.874 L516.806 101.201 L496.4 91.7257 L475.994 86.6951 L455.587 86.1857 L435.181 90.1224 L414.775 98.3035 L394.369 110.422 L373.962 126.085 L353.556 144.833 L333.15 166.16 L312.744 189.532 L292.337 214.402 L271.931 240.232  Z" fill="#3da44d" fill-rule="evenodd" fill-opacity="0.5"/>
<polyline clip-path="url(#clip922)" style="stroke:#3da44d; stroke-linecap:round; stroke-linejoin:round; stroke-width:4; stroke-opacity:1; fill:none" points="271.931,393.851 292.337,359.863 312.744,325.986 333.15,292.833 353.556,261.06 373.962,231.35 394.369,204.386 414.775,180.836 435.181,161.325 455.587,146.411 475.994,136.564 496.4,132.143 516.806,133.385 537.212,140.387 557.619,153.102 578.025,171.338 598.431,194.763 618.837,222.914 639.244,255.218 659.65,291.005 680.056,329.539 700.462,370.044 720.869,411.726 741.275,453.808 761.681,495.546 782.087,536.26 802.494,575.347 822.9,612.296 843.306,646.694 863.712,678.233 884.119,706.708 904.525,732.006 924.931,754.103 945.337,773.046 965.743,788.941 986.15,801.937 1006.56,812.212 1026.96,819.956 1047.37,825.363 1067.77,828.615 1088.18,829.879 1108.59,829.302 1128.99,827.005 1149.4,823.089 1169.81,817.636 1190.21,810.711 1210.62,802.377 1231.02,792.695 1251.43,781.739 1271.84,769.601 1292.24,756.405 1312.65,742.31 1333.06,727.52 1353.46,712.289 1373.87,696.923 1394.27,681.781 1414.68,667.275 1435.09,653.859 1455.49,642.026 1475.9,632.29 1496.31,625.176 1516.71,621.2 1537.12,620.847 1557.52,624.553 1577.93,632.683 1598.34,645.508 1618.74,663.188 1639.15,685.758 1659.56,713.111 1679.96,744.999 1700.37,781.026 1720.77,820.656 1741.18,863.223 1761.59,907.95 1781.99,953.973 1802.4,1000.36 1822.81,1046.16 1843.21,1090.41 1863.62,1132.18 1884.02,1170.6 1904.43,1204.91 1924.84,1234.45 1945.24,1258.69 1965.65,1277.27 1986.06,1289.96 2006.46,1296.71 2026.87,1297.61 2047.27,1292.89 2067.68,1282.9 2088.09,1268.13 2108.49,1249.12 2128.9,1226.48 2149.31,1200.87 2169.71,1172.96 2190.12,1143.41 2210.52,1112.87 2230.93,1081.93 2251.34,1051.13 2271.74,1020.95 2292.15,991.805 "/>
<path clip-path="url(#clip920)" d="M1776.79 300.469 L2281.37 300.469 L2281.37 93.1086 L1776.79 93.1086  Z" fill="#ffffff" fill-rule="evenodd" fill-opacity="1"/>
<polyline clip-path="url(#clip920)" style="stroke:#000000; stroke-linecap:round; stroke-linejoin:round; stroke-width:4; stroke-opacity:1; fill:none" points="1776.79,300.469 2281.37,300.469 2281.37,93.1086 1776.79,93.1086 1776.79,300.469 "/>
<polyline clip-path="url(#clip920)" style="stroke:#009af9; stroke-linecap:round; stroke-linejoin:round; stroke-width:4; stroke-opacity:1; fill:none" points="1800.59,144.949 1943.35,144.949 "/>
<path clip-path="url(#clip920)" d="M1974.55 128.942 L1974.55 136.303 L1983.32 136.303 L1983.32 139.613 L1974.55 139.613 L1974.55 153.687 Q1974.55 156.858 1975.41 157.761 Q1976.29 158.664 1978.95 158.664 L1983.32 158.664 L1983.32 162.229 L1978.95 162.229 Q1974.02 162.229 1972.14 160.4 Q1970.27 158.548 1970.27 153.687 L1970.27 139.613 L1967.14 139.613 L1967.14 136.303 L1970.27 136.303 L1970.27 128.942 L1974.55 128.942 Z" fill="#000000" fill-rule="nonzero" fill-opacity="1" /><path clip-path="url(#clip920)" d="M2003.95 140.284 Q2003.23 139.868 2002.37 139.682 Q2001.54 139.474 2000.52 139.474 Q1996.91 139.474 1994.97 141.835 Q1993.05 144.173 1993.05 148.571 L1993.05 162.229 L1988.76 162.229 L1988.76 136.303 L1993.05 136.303 L1993.05 140.331 Q1994.39 137.969 1996.54 136.835 Q1998.69 135.678 2001.77 135.678 Q2002.21 135.678 2002.74 135.747 Q2003.28 135.794 2003.93 135.909 L2003.95 140.284 Z" fill="#000000" fill-rule="nonzero" fill-opacity="1" /><path clip-path="url(#clip920)" d="M2007.98 151.997 L2007.98 136.303 L2012.24 136.303 L2012.24 151.835 Q2012.24 155.516 2013.67 157.368 Q2015.11 159.196 2017.98 159.196 Q2021.43 159.196 2023.42 156.997 Q2025.43 154.798 2025.43 151.002 L2025.43 136.303 L2029.69 136.303 L2029.69 162.229 L2025.43 162.229 L2025.43 158.247 Q2023.88 160.608 2021.82 161.766 Q2019.78 162.9 2017.07 162.9 Q2012.61 162.9 2010.29 160.122 Q2007.98 157.344 2007.98 151.997 M2018.69 135.678 L2018.69 135.678 Z" fill="#000000" fill-rule="nonzero" fill-opacity="1" /><path clip-path="url(#clip920)" d="M2042.67 128.942 L2042.67 136.303 L2051.45 136.303 L2051.45 139.613 L2042.67 139.613 L2042.67 153.687 Q2042.67 156.858 2043.53 157.761 Q2044.41 158.664 2047.07 158.664 L2051.45 158.664 L2051.45 162.229 L2047.07 162.229 Q2042.14 162.229 2040.27 160.4 Q2038.39 158.548 2038.39 153.687 L2038.39 139.613 L2035.27 139.613 L2035.27 136.303 L2038.39 136.303 L2038.39 128.942 L2042.67 128.942 Z" fill="#000000" fill-rule="nonzero" fill-opacity="1" /><path clip-path="url(#clip920)" d="M2078.6 146.581 L2078.6 162.229 L2074.34 162.229 L2074.34 146.719 Q2074.34 143.039 2072.91 141.21 Q2071.47 139.382 2068.6 139.382 Q2065.15 139.382 2063.16 141.581 Q2061.17 143.78 2061.17 147.576 L2061.17 162.229 L2056.89 162.229 L2056.89 126.21 L2061.17 126.21 L2061.17 140.331 Q2062.7 137.993 2064.76 136.835 Q2066.84 135.678 2069.55 135.678 Q2074.02 135.678 2076.31 138.456 Q2078.6 141.21 2078.6 146.581 Z" fill="#000000" fill-rule="nonzero" fill-opacity="1" /><circle clip-path="url(#clip920)" cx="1871.97" cy="196.789" r="20.48" fill="#e26f46" fill-rule="evenodd" fill-opacity="1" stroke="#000000" stroke-opacity="1" stroke-width="4.55111"/>
<path clip-path="url(#clip920)" d="M1986.05 192.078 L1986.05 178.05 L1990.31 178.05 L1990.31 214.069 L1986.05 214.069 L1986.05 210.18 Q1984.71 212.495 1982.65 213.629 Q1980.62 214.74 1977.74 214.74 Q1973.05 214.74 1970.08 210.99 Q1967.14 207.24 1967.14 201.129 Q1967.14 195.018 1970.08 191.268 Q1973.05 187.518 1977.74 187.518 Q1980.62 187.518 1982.65 188.652 Q1984.71 189.763 1986.05 192.078 M1971.54 201.129 Q1971.54 205.828 1973.46 208.513 Q1975.41 211.175 1978.79 211.175 Q1982.17 211.175 1984.11 208.513 Q1986.05 205.828 1986.05 201.129 Q1986.05 196.43 1984.11 193.768 Q1982.17 191.083 1978.79 191.083 Q1975.41 191.083 1973.46 193.768 Q1971.54 196.43 1971.54 201.129 Z" fill="#000000" fill-rule="nonzero" fill-opacity="1" /><path clip-path="url(#clip920)" d="M2010.87 201.036 Q2005.71 201.036 2003.72 202.217 Q2001.73 203.397 2001.73 206.245 Q2001.73 208.513 2003.21 209.856 Q2004.71 211.175 2007.28 211.175 Q2010.82 211.175 2012.95 208.675 Q2015.11 206.152 2015.11 201.985 L2015.11 201.036 L2010.87 201.036 M2019.36 199.277 L2019.36 214.069 L2015.11 214.069 L2015.11 210.133 Q2013.65 212.495 2011.47 213.629 Q2009.3 214.74 2006.15 214.74 Q2002.17 214.74 1999.8 212.518 Q1997.47 210.272 1997.47 206.522 Q1997.47 202.147 2000.38 199.925 Q2003.32 197.703 2009.13 197.703 L2015.11 197.703 L2015.11 197.286 Q2015.11 194.347 2013.16 192.749 Q2011.24 191.129 2007.74 191.129 Q2005.52 191.129 2003.42 191.661 Q2001.31 192.194 1999.36 193.259 L1999.36 189.323 Q2001.7 188.421 2003.9 187.981 Q2006.1 187.518 2008.18 187.518 Q2013.81 187.518 2016.59 190.434 Q2019.36 193.351 2019.36 199.277 Z" fill="#000000" fill-rule="nonzero" fill-opacity="1" /><path clip-path="url(#clip920)" d="M2032.35 180.782 L2032.35 188.143 L2041.12 188.143 L2041.12 191.453 L2032.35 191.453 L2032.35 205.527 Q2032.35 208.698 2033.21 209.601 Q2034.09 210.504 2036.75 210.504 L2041.12 210.504 L2041.12 214.069 L2036.75 214.069 Q2031.82 214.069 2029.94 212.24 Q2028.07 210.388 2028.07 205.527 L2028.07 191.453 L2024.94 191.453 L2024.94 188.143 L2028.07 188.143 L2028.07 180.782 L2032.35 180.782 Z" fill="#000000" fill-rule="nonzero" fill-opacity="1" /><path clip-path="url(#clip920)" d="M2058.51 201.036 Q2053.35 201.036 2051.36 202.217 Q2049.36 203.397 2049.36 206.245 Q2049.36 208.513 2050.85 209.856 Q2052.35 211.175 2054.92 211.175 Q2058.46 211.175 2060.59 208.675 Q2062.74 206.152 2062.74 201.985 L2062.74 201.036 L2058.51 201.036 M2067 199.277 L2067 214.069 L2062.74 214.069 L2062.74 210.133 Q2061.29 212.495 2059.11 213.629 Q2056.93 214.74 2053.79 214.74 Q2049.8 214.74 2047.44 212.518 Q2045.11 210.272 2045.11 206.522 Q2045.11 202.147 2048.02 199.925 Q2050.96 197.703 2056.77 197.703 L2062.74 197.703 L2062.74 197.286 Q2062.74 194.347 2060.8 192.749 Q2058.88 191.129 2055.38 191.129 Q2053.16 191.129 2051.05 191.661 Q2048.95 192.194 2047 193.259 L2047 189.323 Q2049.34 188.421 2051.54 187.981 Q2053.74 187.518 2055.82 187.518 Q2061.45 187.518 2064.23 190.434 Q2067 193.351 2067 199.277 Z" fill="#000000" fill-rule="nonzero" fill-opacity="1" /><polyline clip-path="url(#clip920)" style="stroke:#3da44d; stroke-linecap:round; stroke-linejoin:round; stroke-width:4; stroke-opacity:1; fill:none" points="1800.59,248.629 1943.35,248.629 "/>
<path clip-path="url(#clip920)" d="M1992.7 260.978 L1992.7 251.696 L1985.06 251.696 L1985.06 247.853 L1997.33 247.853 L1997.33 262.691 Q1994.62 264.612 1991.36 265.608 Q1988.09 266.58 1984.39 266.58 Q1976.29 266.58 1971.7 261.858 Q1967.14 257.112 1967.14 248.663 Q1967.14 240.191 1971.7 235.469 Q1976.29 230.724 1984.39 230.724 Q1987.77 230.724 1990.8 231.557 Q1993.86 232.39 1996.43 234.011 L1996.43 238.987 Q1993.83 236.788 1990.92 235.677 Q1988 234.566 1984.78 234.566 Q1978.44 234.566 1975.24 238.108 Q1972.07 241.649 1972.07 248.663 Q1972.07 255.654 1975.24 259.196 Q1978.44 262.737 1984.78 262.737 Q1987.26 262.737 1989.2 262.321 Q1991.15 261.881 1992.7 260.978 Z" fill="#000000" fill-rule="nonzero" fill-opacity="1" /><path clip-path="url(#clip920)" d="M2010.55 235.191 L2010.55 248.177 L2016.43 248.177 Q2019.69 248.177 2021.47 246.487 Q2023.25 244.798 2023.25 241.673 Q2023.25 238.571 2021.47 236.881 Q2019.69 235.191 2016.43 235.191 L2010.55 235.191 M2005.87 231.349 L2016.43 231.349 Q2022.24 231.349 2025.2 233.987 Q2028.18 236.603 2028.18 241.673 Q2028.18 246.788 2025.2 249.404 Q2022.24 252.02 2016.43 252.02 L2010.55 252.02 L2010.55 265.909 L2005.87 265.909 L2005.87 231.349 Z" fill="#000000" fill-rule="nonzero" fill-opacity="1" /><path clip-path="url(#clip920)" d="M2053.46 262.02 L2053.46 275.77 L2049.18 275.77 L2049.18 239.983 L2053.46 239.983 L2053.46 243.918 Q2054.8 241.603 2056.84 240.492 Q2058.9 239.358 2061.75 239.358 Q2066.47 239.358 2069.41 243.108 Q2072.37 246.858 2072.37 252.969 Q2072.37 259.08 2069.41 262.83 Q2066.47 266.58 2061.75 266.58 Q2058.9 266.58 2056.84 265.469 Q2054.8 264.335 2053.46 262.02 M2067.95 252.969 Q2067.95 248.27 2066.01 245.608 Q2064.09 242.923 2060.71 242.923 Q2057.33 242.923 2055.38 245.608 Q2053.46 248.27 2053.46 252.969 Q2053.46 257.668 2055.38 260.353 Q2057.33 263.015 2060.71 263.015 Q2064.09 263.015 2066.01 260.353 Q2067.95 257.668 2067.95 252.969 Z" fill="#000000" fill-rule="nonzero" fill-opacity="1" /><path clip-path="url(#clip920)" d="M2089.48 242.969 Q2086.05 242.969 2084.06 245.654 Q2082.07 248.316 2082.07 252.969 Q2082.07 257.622 2084.04 260.307 Q2086.03 262.969 2089.48 262.969 Q2092.88 262.969 2094.87 260.284 Q2096.86 257.598 2096.86 252.969 Q2096.86 248.362 2094.87 245.677 Q2092.88 242.969 2089.48 242.969 M2089.48 239.358 Q2095.04 239.358 2098.21 242.969 Q2101.38 246.58 2101.38 252.969 Q2101.38 259.335 2098.21 262.969 Q2095.04 266.58 2089.48 266.58 Q2083.9 266.58 2080.73 262.969 Q2077.58 259.335 2077.58 252.969 Q2077.58 246.58 2080.73 242.969 Q2083.9 239.358 2089.48 239.358 Z" fill="#000000" fill-rule="nonzero" fill-opacity="1" /><path clip-path="url(#clip920)" d="M2124.97 240.747 L2124.97 244.774 Q2123.16 243.849 2121.22 243.386 Q2119.27 242.923 2117.19 242.923 Q2114.02 242.923 2112.42 243.895 Q2110.85 244.867 2110.85 246.811 Q2110.85 248.293 2111.98 249.149 Q2113.11 249.983 2116.54 250.747 L2118 251.071 Q2122.54 252.043 2124.43 253.825 Q2126.36 255.585 2126.36 258.756 Q2126.36 262.367 2123.48 264.473 Q2120.64 266.58 2115.64 266.58 Q2113.55 266.58 2111.29 266.163 Q2109.04 265.77 2106.54 264.96 L2106.54 260.561 Q2108.9 261.788 2111.19 262.413 Q2113.48 263.015 2115.73 263.015 Q2118.74 263.015 2120.36 261.997 Q2121.98 260.955 2121.98 259.08 Q2121.98 257.344 2120.8 256.418 Q2119.64 255.492 2115.68 254.636 L2114.2 254.288 Q2110.24 253.455 2108.48 251.742 Q2106.73 250.006 2106.73 246.997 Q2106.73 243.339 2109.32 241.349 Q2111.91 239.358 2116.68 239.358 Q2119.04 239.358 2121.12 239.705 Q2123.21 240.052 2124.97 240.747 Z" fill="#000000" fill-rule="nonzero" fill-opacity="1" /><path clip-path="url(#clip920)" d="M2137.35 232.622 L2137.35 239.983 L2146.12 239.983 L2146.12 243.293 L2137.35 243.293 L2137.35 257.367 Q2137.35 260.538 2138.21 261.441 Q2139.09 262.344 2141.75 262.344 L2146.12 262.344 L2146.12 265.909 L2141.75 265.909 Q2136.82 265.909 2134.94 264.08 Q2133.07 262.228 2133.07 257.367 L2133.07 243.293 L2129.94 243.293 L2129.94 239.983 L2133.07 239.983 L2133.07 232.622 L2137.35 232.622 Z" fill="#000000" fill-rule="nonzero" fill-opacity="1" /><path clip-path="url(#clip920)" d="M2173.9 251.881 L2173.9 253.964 L2154.32 253.964 Q2154.6 258.362 2156.96 260.677 Q2159.34 262.969 2163.58 262.969 Q2166.03 262.969 2168.32 262.367 Q2170.64 261.765 2172.91 260.561 L2172.91 264.589 Q2170.61 265.561 2168.21 266.071 Q2165.8 266.58 2163.32 266.58 Q2157.12 266.58 2153.48 262.969 Q2149.87 259.358 2149.87 253.2 Q2149.87 246.835 2153.3 243.108 Q2156.75 239.358 2162.58 239.358 Q2167.81 239.358 2170.85 242.737 Q2173.9 246.094 2173.9 251.881 M2169.64 250.631 Q2169.6 247.136 2167.67 245.052 Q2165.78 242.969 2162.63 242.969 Q2159.06 242.969 2156.91 244.983 Q2154.78 246.997 2154.46 250.654 L2169.64 250.631 Z" fill="#000000" fill-rule="nonzero" fill-opacity="1" /><path clip-path="url(#clip920)" d="M2195.91 243.964 Q2195.2 243.548 2194.34 243.362 Q2193.51 243.154 2192.49 243.154 Q2188.88 243.154 2186.93 245.515 Q2185.01 247.853 2185.01 252.251 L2185.01 265.909 L2180.73 265.909 L2180.73 239.983 L2185.01 239.983 L2185.01 244.011 Q2186.35 241.649 2188.51 240.515 Q2190.66 239.358 2193.74 239.358 Q2194.18 239.358 2194.71 239.427 Q2195.24 239.474 2195.89 239.589 L2195.91 243.964 Z" fill="#000000" fill-rule="nonzero" fill-opacity="1" /><path clip-path="url(#clip920)" d="M2200.38 239.983 L2204.64 239.983 L2204.64 265.909 L2200.38 265.909 L2200.38 239.983 M2200.38 229.89 L2204.64 229.89 L2204.64 235.284 L2200.38 235.284 L2200.38 229.89 Z" fill="#000000" fill-rule="nonzero" fill-opacity="1" /><path clip-path="url(#clip920)" d="M2223.6 242.969 Q2220.17 242.969 2218.18 245.654 Q2216.19 248.316 2216.19 252.969 Q2216.19 257.622 2218.16 260.307 Q2220.15 262.969 2223.6 262.969 Q2227 262.969 2228.99 260.284 Q2230.98 257.598 2230.98 252.969 Q2230.98 248.362 2228.99 245.677 Q2227 242.969 2223.6 242.969 M2223.6 239.358 Q2229.16 239.358 2232.33 242.969 Q2235.5 246.58 2235.5 252.969 Q2235.5 259.335 2232.33 262.969 Q2229.16 266.58 2223.6 266.58 Q2218.02 266.58 2214.85 262.969 Q2211.7 259.335 2211.7 252.969 Q2211.7 246.58 2214.85 242.969 Q2218.02 239.358 2223.6 239.358 Z" fill="#000000" fill-rule="nonzero" fill-opacity="1" /><path clip-path="url(#clip920)" d="M2257.58 243.964 Q2256.86 243.548 2256.01 243.362 Q2255.17 243.154 2254.16 243.154 Q2250.54 243.154 2248.6 245.515 Q2246.68 247.853 2246.68 252.251 L2246.68 265.909 L2242.4 265.909 L2242.4 239.983 L2246.68 239.983 L2246.68 244.011 Q2248.02 241.649 2250.17 240.515 Q2252.33 239.358 2255.41 239.358 Q2255.85 239.358 2256.38 239.427 Q2256.91 239.474 2257.56 239.589 L2257.58 243.964 Z" fill="#000000" fill-rule="nonzero" fill-opacity="1" /></svg>
