<?xml version="1.0" encoding="utf-8"?>
<svg xmlns="http://www.w3.org/2000/svg" xmlns:xlink="http://www.w3.org/1999/xlink" width="600" height="400" viewBox="0 0 2400 1600">
<defs>
  <clipPath id="clip950">
    <rect x="0" y="0" width="2400" height="1600"/>
  </clipPath>
</defs>
<path clip-path="url(#clip950)" d="M0 1600 L2400 1600 L2400 0 L0 0  Z" fill="#ffffff" fill-rule="evenodd" fill-opacity="1"/>
<defs>
  <clipPath id="clip951">
    <rect x="480" y="0" width="1681" height="1600"/>
  </clipPath>
</defs>
<path clip-path="url(#clip950)" d="M217.783 1423.18 L2352.76 1423.18 L2352.76 47.2441 L217.783 47.2441  Z" fill="#ffffff" fill-rule="evenodd" fill-opacity="1"/>
<defs>
  <clipPath id="clip952">
    <rect x="217" y="47" width="2136" height="1377"/>
  </clipPath>
</defs>
<polyline clip-path="url(#clip952)" style="stroke:#000000; stroke-linecap:round; stroke-linejoin:round; stroke-width:2; stroke-opacity:0.1; fill:none" points="278.207,1423.18 278.207,47.2441 "/>
<polyline clip-path="url(#clip952)" style="stroke:#000000; stroke-linecap:round; stroke-linejoin:round; stroke-width:2; stroke-opacity:0.1; fill:none" points="781.738,1423.18 781.738,47.2441 "/>
<polyline clip-path="url(#clip952)" style="stroke:#000000; stroke-linecap:round; stroke-linejoin:round; stroke-width:2; stroke-opacity:0.1; fill:none" points="1285.27,1423.18 1285.27,47.2441 "/>
<polyline clip-path="url(#clip952)" style="stroke:#000000; stroke-linecap:round; stroke-linejoin:round; stroke-width:2; stroke-opacity:0.1; fill:none" points="1788.8,1423.18 1788.8,47.2441 "/>
<polyline clip-path="url(#clip952)" style="stroke:#000000; stroke-linecap:round; stroke-linejoin:round; stroke-width:2; stroke-opacity:0.1; fill:none" points="2292.33,1423.18 2292.33,47.2441 "/>
<polyline clip-path="url(#clip950)" style="stroke:#000000; stroke-linecap:round; stroke-linejoin:round; stroke-width:4; stroke-opacity:1; fill:none" points="217.783,1423.18 2352.76,1423.18 "/>
<polyline clip-path="url(#clip950)" style="stroke:#000000; stroke-linecap:round; stroke-linejoin:round; stroke-width:4; stroke-opacity:1; fill:none" points="278.207,1423.18 278.207,1404.28 "/>
<polyline clip-path="url(#clip950)" style="stroke:#000000; stroke-linecap:round; stroke-linejoin:round; stroke-width:4; stroke-opacity:1; fill:none" points="781.738,1423.18 781.738,1404.28 "/>
<polyline clip-path="url(#clip950)" style="stroke:#000000; stroke-linecap:round; stroke-linejoin:round; stroke-width:4; stroke-opacity:1; fill:none" points="1285.27,1423.18 1285.27,1404.28 "/>
<polyline clip-path="url(#clip950)" style="stroke:#000000; stroke-linecap:round; stroke-linejoin:round; stroke-width:4; stroke-opacity:1; fill:none" points="1788.8,1423.18 1788.8,1404.28 "/>
<polyline clip-path="url(#clip950)" style="stroke:#000000; stroke-linecap:round; stroke-linejoin:round; stroke-width:4; stroke-opacity:1; fill:none" points="2292.33,1423.18 2292.33,1404.28 "/>
<path clip-path="url(#clip950)" d="M278.207 1454.1 Q274.596 1454.1 272.767 1457.66 Q270.961 1461.2 270.961 1468.33 Q270.961 1475.44 272.767 1479.01 Q274.596 1482.55 278.207 1482.55 Q281.841 1482.55 283.646 1479.01 Q285.475 1475.44 285.475 1468.33 Q285.475 1461.2 283.646 1457.66 Q281.841 1454.1 278.207 1454.1 M278.207 1450.39 Q284.017 1450.39 287.072 1455 Q290.151 1459.58 290.151 1468.33 Q290.151 1477.06 287.072 1481.67 Q284.017 1486.25 278.207 1486.25 Q272.397 1486.25 269.318 1481.67 Q266.262 1477.06 266.262 1468.33 Q266.262 1459.58 269.318 1455 Q272.397 1450.39 278.207 1450.39 Z" fill="#000000" fill-rule="nonzero" fill-opacity="1" /><path clip-path="url(#clip950)" d="M776.391 1481.64 L792.71 1481.64 L792.71 1485.58 L770.766 1485.58 L770.766 1481.64 Q773.428 1478.89 778.011 1474.26 Q782.618 1469.61 783.798 1468.27 Q786.044 1465.74 786.923 1464.01 Q787.826 1462.25 787.826 1460.56 Q787.826 1457.8 785.882 1456.07 Q783.96 1454.33 780.858 1454.33 Q778.659 1454.33 776.206 1455.09 Q773.775 1455.86 770.997 1457.41 L770.997 1452.69 Q773.821 1451.55 776.275 1450.97 Q778.729 1450.39 780.766 1450.39 Q786.136 1450.39 789.331 1453.08 Q792.525 1455.77 792.525 1460.26 Q792.525 1462.39 791.715 1464.31 Q790.928 1466.2 788.821 1468.8 Q788.243 1469.47 785.141 1472.69 Q782.039 1475.88 776.391 1481.64 Z" fill="#000000" fill-rule="nonzero" fill-opacity="1" /><path clip-path="url(#clip950)" d="M1288.28 1455.09 L1276.47 1473.54 L1288.28 1473.54 L1288.28 1455.09 M1287.05 1451.02 L1292.93 1451.02 L1292.93 1473.54 L1297.86 1473.54 L1297.86 1477.43 L1292.93 1477.43 L1292.93 1485.58 L1288.28 1485.58 L1288.28 1477.43 L1272.68 1477.43 L1272.68 1472.92 L1287.05 1451.02 Z" fill="#000000" fill-rule="nonzero" fill-opacity="1" /><path clip-path="url(#clip950)" d="M1789.21 1466.44 Q1786.06 1466.44 1784.21 1468.59 Q1782.38 1470.74 1782.38 1474.49 Q1782.38 1478.22 1784.21 1480.39 Q1786.06 1482.55 1789.21 1482.55 Q1792.35 1482.55 1794.18 1480.39 Q1796.03 1478.22 1796.03 1474.49 Q1796.03 1470.74 1794.18 1468.59 Q1792.35 1466.44 1789.21 1466.44 M1798.49 1451.78 L1798.49 1456.04 Q1796.73 1455.21 1794.92 1454.77 Q1793.14 1454.33 1791.38 1454.33 Q1786.75 1454.33 1784.3 1457.45 Q1781.87 1460.58 1781.52 1466.9 Q1782.89 1464.89 1784.95 1463.82 Q1787.01 1462.73 1789.48 1462.73 Q1794.69 1462.73 1797.7 1465.9 Q1800.73 1469.05 1800.73 1474.49 Q1800.73 1479.82 1797.59 1483.03 Q1794.44 1486.25 1789.21 1486.25 Q1783.21 1486.25 1780.04 1481.67 Q1776.87 1477.06 1776.87 1468.33 Q1776.87 1460.14 1780.76 1455.28 Q1784.65 1450.39 1791.2 1450.39 Q1792.96 1450.39 1794.74 1450.74 Q1796.54 1451.09 1798.49 1451.78 Z" fill="#000000" fill-rule="nonzero" fill-opacity="1" /><path clip-path="url(#clip950)" d="M2292.33 1469.17 Q2289 1469.17 2287.08 1470.95 Q2285.18 1472.73 2285.18 1475.86 Q2285.18 1478.98 2287.08 1480.77 Q2289 1482.55 2292.33 1482.55 Q2295.67 1482.55 2297.59 1480.77 Q2299.51 1478.96 2299.51 1475.86 Q2299.51 1472.73 2297.59 1470.95 Q2295.69 1469.17 2292.33 1469.17 M2287.66 1467.18 Q2284.65 1466.44 2282.96 1464.38 Q2281.29 1462.32 2281.29 1459.35 Q2281.29 1455.21 2284.23 1452.8 Q2287.19 1450.39 2292.33 1450.39 Q2297.49 1450.39 2300.43 1452.8 Q2303.37 1455.21 2303.37 1459.35 Q2303.37 1462.32 2301.68 1464.38 Q2300.02 1466.44 2297.03 1467.18 Q2300.41 1467.96 2302.29 1470.26 Q2304.18 1472.55 2304.18 1475.86 Q2304.18 1480.88 2301.11 1483.57 Q2298.05 1486.25 2292.33 1486.25 Q2286.61 1486.25 2283.54 1483.57 Q2280.48 1480.88 2280.48 1475.86 Q2280.48 1472.55 2282.38 1470.26 Q2284.28 1467.96 2287.66 1467.18 M2285.94 1459.79 Q2285.94 1462.48 2287.61 1463.98 Q2289.3 1465.49 2292.33 1465.49 Q2295.34 1465.49 2297.03 1463.98 Q2298.74 1462.48 2298.74 1459.79 Q2298.74 1457.11 2297.03 1455.6 Q2295.34 1454.1 2292.33 1454.1 Q2289.3 1454.1 2287.61 1455.6 Q2285.94 1457.11 2285.94 1459.79 Z" fill="#000000" fill-rule="nonzero" fill-opacity="1" /><path clip-path="url(#clip950)" d="M1284.33 1522.27 L1284.33 1532.4 L1296.39 1532.4 L1296.39 1536.95 L1284.33 1536.95 L1284.33 1556.3 Q1284.33 1560.66 1285.51 1561.9 Q1286.72 1563.14 1290.38 1563.14 L1296.39 1563.14 L1296.39 1568.04 L1290.38 1568.04 Q1283.6 1568.04 1281.02 1565.53 Q1278.44 1562.98 1278.44 1556.3 L1278.44 1536.95 L1274.15 1536.95 L1274.15 1532.4 L1278.44 1532.4 L1278.44 1522.27 L1284.33 1522.27 Z" fill="#000000" fill-rule="nonzero" fill-opacity="1" /><polyline clip-path="url(#clip952)" style="stroke:#000000; stroke-linecap:round; stroke-linejoin:round; stroke-width:2; stroke-opacity:0.1; fill:none" points="217.783,1384.24 2352.76,1384.24 "/>
<polyline clip-path="url(#clip952)" style="stroke:#000000; stroke-linecap:round; stroke-linejoin:round; stroke-width:2; stroke-opacity:0.1; fill:none" points="217.783,1020.71 2352.76,1020.71 "/>
<polyline clip-path="url(#clip952)" style="stroke:#000000; stroke-linecap:round; stroke-linejoin:round; stroke-width:2; stroke-opacity:0.1; fill:none" points="217.783,657.18 2352.76,657.18 "/>
<polyline clip-path="url(#clip952)" style="stroke:#000000; stroke-linecap:round; stroke-linejoin:round; stroke-width:2; stroke-opacity:0.1; fill:none" points="217.783,293.651 2352.76,293.651 "/>
<polyline clip-path="url(#clip950)" style="stroke:#000000; stroke-linecap:round; stroke-linejoin:round; stroke-width:4; stroke-opacity:1; fill:none" points="217.783,1423.18 217.783,47.2441 "/>
<polyline clip-path="url(#clip950)" style="stroke:#000000; stroke-linecap:round; stroke-linejoin:round; stroke-width:4; stroke-opacity:1; fill:none" points="217.783,1384.24 236.681,1384.24 "/>
<polyline clip-path="url(#clip950)" style="stroke:#000000; stroke-linecap:round; stroke-linejoin:round; stroke-width:4; stroke-opacity:1; fill:none" points="217.783,1020.71 236.681,1020.71 "/>
<polyline clip-path="url(#clip950)" style="stroke:#000000; stroke-linecap:round; stroke-linejoin:round; stroke-width:4; stroke-opacity:1; fill:none" points="217.783,657.18 236.681,657.18 "/>
<polyline clip-path="url(#clip950)" style="stroke:#000000; stroke-linecap:round; stroke-linejoin:round; stroke-width:4; stroke-opacity:1; fill:none" points="217.783,293.651 236.681,293.651 "/>
<path clip-path="url(#clip950)" d="M115.418 1397.58 L123.056 1397.58 L123.056 1371.22 L114.746 1372.88 L114.746 1368.62 L123.01 1366.96 L127.686 1366.96 L127.686 1397.58 L135.325 1397.58 L135.325 1401.52 L115.418 1401.52 L115.418 1397.58 Z" fill="#000000" fill-rule="nonzero" fill-opacity="1" /><path clip-path="url(#clip950)" d="M144.769 1395.64 L149.653 1395.64 L149.653 1401.52 L144.769 1401.52 L144.769 1395.64 Z" fill="#000000" fill-rule="nonzero" fill-opacity="1" /><path clip-path="url(#clip950)" d="M169.839 1370.04 Q166.227 1370.04 164.399 1373.6 Q162.593 1377.14 162.593 1384.27 Q162.593 1391.38 164.399 1394.94 Q166.227 1398.49 169.839 1398.49 Q173.473 1398.49 175.278 1394.94 Q177.107 1391.38 177.107 1384.27 Q177.107 1377.14 175.278 1373.6 Q173.473 1370.04 169.839 1370.04 M169.839 1366.33 Q175.649 1366.33 178.704 1370.94 Q181.783 1375.52 181.783 1384.27 Q181.783 1393 178.704 1397.61 Q175.649 1402.19 169.839 1402.19 Q164.028 1402.19 160.95 1397.61 Q157.894 1393 157.894 1384.27 Q157.894 1375.52 160.95 1370.94 Q164.028 1366.33 169.839 1366.33 Z" fill="#000000" fill-rule="nonzero" fill-opacity="1" /><path clip-path="url(#clip950)" d="M117.015 1034.05 L124.654 1034.05 L124.654 1007.69 L116.343 1009.36 L116.343 1005.1 L124.607 1003.43 L129.283 1003.43 L129.283 1034.05 L136.922 1034.05 L136.922 1037.99 L117.015 1037.99 L117.015 1034.05 Z" fill="#000000" fill-rule="nonzero" fill-opacity="1" /><path clip-path="url(#clip950)" d="M146.366 1032.11 L151.251 1032.11 L151.251 1037.99 L146.366 1037.99 L146.366 1032.11 Z" fill="#000000" fill-rule="nonzero" fill-opacity="1" /><path clip-path="url(#clip950)" d="M165.464 1034.05 L181.783 1034.05 L181.783 1037.99 L159.839 1037.99 L159.839 1034.05 Q162.501 1031.3 167.084 1026.67 Q171.69 1022.02 172.871 1020.67 Q175.116 1018.15 175.996 1016.42 Q176.899 1014.66 176.899 1012.97 Q176.899 1010.21 174.954 1008.48 Q173.033 1006.74 169.931 1006.74 Q167.732 1006.74 165.278 1007.5 Q162.848 1008.27 160.07 1009.82 L160.07 1005.1 Q162.894 1003.96 165.348 1003.38 Q167.802 1002.8 169.839 1002.8 Q175.209 1002.8 178.403 1005.49 Q181.598 1008.17 181.598 1012.67 Q181.598 1014.79 180.788 1016.72 Q180.001 1018.61 177.894 1021.21 Q177.315 1021.88 174.214 1025.1 Q171.112 1028.29 165.464 1034.05 Z" fill="#000000" fill-rule="nonzero" fill-opacity="1" /><path clip-path="url(#clip950)" d="M114.931 670.525 L122.57 670.525 L122.57 644.159 L114.26 645.826 L114.26 641.567 L122.524 639.9 L127.2 639.9 L127.2 670.525 L134.839 670.525 L134.839 674.46 L114.931 674.46 L114.931 670.525 Z" fill="#000000" fill-rule="nonzero" fill-opacity="1" /><path clip-path="url(#clip950)" d="M144.283 668.58 L149.167 668.58 L149.167 674.46 L144.283 674.46 L144.283 668.58 Z" fill="#000000" fill-rule="nonzero" fill-opacity="1" /><path clip-path="url(#clip950)" d="M172.2 643.974 L160.394 662.423 L172.2 662.423 L172.2 643.974 M170.973 639.9 L176.852 639.9 L176.852 662.423 L181.783 662.423 L181.783 666.312 L176.852 666.312 L176.852 674.46 L172.2 674.46 L172.2 666.312 L156.598 666.312 L156.598 661.798 L170.973 639.9 Z" fill="#000000" fill-rule="nonzero" fill-opacity="1" /><path clip-path="url(#clip950)" d="M115.256 306.996 L122.894 306.996 L122.894 280.63 L114.584 282.297 L114.584 278.038 L122.848 276.371 L127.524 276.371 L127.524 306.996 L135.163 306.996 L135.163 310.931 L115.256 310.931 L115.256 306.996 Z" fill="#000000" fill-rule="nonzero" fill-opacity="1" /><path clip-path="url(#clip950)" d="M144.607 305.051 L149.491 305.051 L149.491 310.931 L144.607 310.931 L144.607 305.051 Z" fill="#000000" fill-rule="nonzero" fill-opacity="1" /><path clip-path="url(#clip950)" d="M170.255 291.788 Q167.107 291.788 165.255 293.94 Q163.427 296.093 163.427 299.843 Q163.427 303.57 165.255 305.746 Q167.107 307.899 170.255 307.899 Q173.403 307.899 175.232 305.746 Q177.084 303.57 177.084 299.843 Q177.084 296.093 175.232 293.94 Q173.403 291.788 170.255 291.788 M179.538 277.135 L179.538 281.394 Q177.778 280.561 175.973 280.121 Q174.19 279.681 172.431 279.681 Q167.802 279.681 165.348 282.806 Q162.917 285.931 162.57 292.25 Q163.936 290.237 165.996 289.172 Q168.056 288.084 170.533 288.084 Q175.741 288.084 178.751 291.255 Q181.783 294.403 181.783 299.843 Q181.783 305.167 178.635 308.385 Q175.487 311.602 170.255 311.602 Q164.26 311.602 161.089 307.019 Q157.917 302.412 157.917 293.686 Q157.917 285.491 161.806 280.63 Q165.695 275.746 172.246 275.746 Q174.005 275.746 175.788 276.093 Q177.593 276.44 179.538 277.135 Z" fill="#000000" fill-rule="nonzero" fill-opacity="1" /><path clip-path="url(#clip950)" d="M49.9359 788.509 L28.3562 788.509 L28.3562 782.652 L49.7131 782.652 Q54.7739 782.652 57.3202 780.679 Q59.8346 778.706 59.8346 774.759 Q59.8346 770.016 56.8109 767.279 Q53.7872 764.51 48.5673 764.51 L28.3562 764.51 L28.3562 758.654 L64.0042 758.654 L64.0042 764.51 L58.5296 764.51 Q61.7762 766.643 63.3676 769.475 Q64.9272 772.276 64.9272 776 Q64.9272 782.143 61.1078 785.326 Q57.2883 788.509 49.9359 788.509 M27.4968 773.772 L27.4968 773.772 Z" fill="#000000" fill-rule="nonzero" fill-opacity="1" /><path clip-path="url(#clip950)" d="M14.5426 732.522 Q21.8632 736.787 29.0246 738.856 Q36.186 740.925 43.5384 740.925 Q50.8908 740.925 58.1159 738.856 Q65.3091 736.756 72.5979 732.522 L72.5979 737.615 Q65.1182 742.389 57.8931 744.776 Q50.668 747.132 43.5384 747.132 Q36.4406 747.132 29.2474 744.776 Q22.0542 742.421 14.5426 737.615 L14.5426 732.522 Z" fill="#000000" fill-rule="nonzero" fill-opacity="1" /><path clip-path="url(#clip950)" d="M18.2347 715.367 L28.3562 715.367 L28.3562 703.304 L32.9077 703.304 L32.9077 715.367 L52.2594 715.367 Q56.6199 715.367 57.8613 714.189 Q59.1026 712.98 59.1026 709.319 L59.1026 703.304 L64.0042 703.304 L64.0042 709.319 Q64.0042 716.099 61.4897 718.677 Q58.9434 721.255 52.2594 721.255 L32.9077 721.255 L32.9077 725.552 L28.3562 725.552 L28.3562 721.255 L18.2347 721.255 L18.2347 715.367 Z" fill="#000000" fill-rule="nonzero" fill-opacity="1" /><path clip-path="url(#clip950)" d="M14.5426 696.524 L14.5426 691.432 Q22.0542 686.658 29.2474 684.302 Q36.4406 681.915 43.5384 681.915 Q50.668 681.915 57.8931 684.302 Q65.1182 686.658 72.5979 691.432 L72.5979 696.524 Q65.3091 692.291 58.1159 690.222 Q50.8908 688.122 43.5384 688.122 Q36.186 688.122 29.0246 690.222 Q21.8632 692.291 14.5426 696.524 Z" fill="#000000" fill-rule="nonzero" fill-opacity="1" /><path clip-path="url(#clip952)" d="M278.207 1384.24 L303.383 1285.61 L328.56 1186.57 L353.736 1088.5 L378.913 992.856 L404.09 901.103 L429.266 814.575 L454.443 734.393 L479.619 661.38 L504.796 596.012 L529.972 538.416 L555.149 488.41 L580.326 445.562 L605.502 409.269 L630.679 378.834 L655.855 353.524 L681.032 332.621 L706.208 315.456 L731.385 301.423 L756.561 289.991 L781.738 280.702 L806.915 273.171 L832.091 267.073 L857.268 262.142 L882.444 258.156 L907.621 254.937 L932.797 252.338 L957.974 250.239 L983.151 248.545 L1008.33 247.178 L1033.5 246.074 L1058.68 245.184 L1083.86 244.465 L1109.03 243.884 L1134.21 243.416 L1159.39 243.038 L1184.56 242.733 L1209.74 242.486 L1234.92 242.288 L1260.09 242.127 L1285.27 241.998 L1310.45 241.893 L1335.62 241.809 L1360.8 241.741 L1385.98 241.686 L1411.15 241.642 L1436.33 241.606 L1461.51 241.578 L1486.68 241.554 L1511.86 241.536 L1537.04 241.521 L1562.21 241.508 L1587.39 241.499 L1612.56 241.491 L1637.74 241.484 L1662.92 241.479 L1688.09 241.475 L1713.27 241.472 L1738.45 241.469 L1763.62 241.467 L1788.8 241.465 L1813.98 241.464 L1839.15 241.463 L1864.33 241.462 L1889.51 241.461 L1914.68 241.46 L1939.86 241.46 L1965.04 241.46 L1990.21 241.459 L2015.39 241.459 L2040.57 241.459 L2065.74 241.459 L2090.92 241.459 L2116.1 241.458 L2141.27 241.458 L2166.45 241.458 L2191.63 241.458 L2216.8 241.458 L2241.98 241.458 L2267.16 241.458 L2292.33 241.458 L2292.33 86.1857 L2267.16 86.1857 L2241.98 86.1857 L2216.8 86.1857 L2191.63 86.1857 L2166.45 86.1857 L2141.27 86.1857 L2116.1 86.1857 L2090.92 86.1857 L2065.74 86.1857 L2040.57 86.1857 L2015.39 86.1857 L1990.21 86.1858 L1965.04 86.1858 L1939.86 86.1858 L1914.68 86.1859 L1889.51 86.186 L1864.33 86.1861 L1839.15 86.1862 L1813.98 86.1864 L1788.8 86.1867 L1763.62 86.187 L1738.45 86.1875 L1713.27 86.1881 L1688.09 86.1888 L1662.92 86.1898 L1637.74 86.1912 L1612.56 86.1929 L1587.39 86.1951 L1562.21 86.1979 L1537.04 86.2016 L1511.86 86.2065 L1486.68 86.2127 L1461.51 86.2207 L1436.33 86.2311 L1411.15 86.2445 L1385.98 86.2618 L1360.8 86.284 L1335.62 86.3126 L1310.45 86.3493 L1285.27 86.3965 L1260.09 86.457 L1234.92 86.5347 L1209.74 86.6342 L1184.56 86.7617 L1159.39 86.9248 L1134.21 87.1333 L1109.03 87.3998 L1083.86 87.7399 L1058.68 88.1739 L1033.5 88.7269 L1008.33 89.4311 L983.151 90.327 L957.974 91.4655 L932.797 92.9109 L907.621 94.7437 L882.444 97.0648 L857.268 100.001 L832.091 103.709 L806.915 108.385 L781.738 114.272 L756.561 121.671 L731.385 130.951 L706.208 142.567 L681.032 157.068 L655.855 175.119 L630.679 197.511 L605.502 225.167 L580.326 259.139 L555.149 300.581 L529.972 350.695 L504.796 410.639 L479.619 481.385 L454.443 563.552 L429.266 657.233 L404.09 761.846 L378.913 876.085 L353.736 997.978 L328.56 1125.07 L303.383 1254.7 L278.207 1384.24  Z" fill="#009af9" fill-rule="evenodd" fill-opacity="0.5"/>
<polyline clip-path="url(#clip952)" style="stroke:#009af9; stroke-linecap:round; stroke-linejoin:round; stroke-width:4; stroke-opacity:1; fill:none" points="278.207,1384.24 303.383,1270.16 328.56,1155.82 353.736,1043.24 378.913,934.471 404.09,831.475 429.266,735.904 454.443,648.973 479.619,571.382 504.796,503.325 529.972,444.556 555.149,394.495 580.326,352.35 605.502,317.218 630.679,288.173 655.855,264.321 681.032,244.845 706.208,229.011 731.385,216.187 756.561,205.831 781.738,197.487 806.915,190.778 832.091,185.391 857.268,181.071 882.444,177.611 907.621,174.84 932.797,172.624 957.974,170.852 983.151,169.436 1008.33,168.305 1033.5,167.401 1058.68,166.679 1083.86,166.102 1109.03,165.642 1134.21,165.275 1159.39,164.981 1184.56,164.747 1209.74,164.56 1234.92,164.411 1260.09,164.292 1285.27,164.197 1310.45,164.121 1335.62,164.061 1360.8,164.013 1385.98,163.974 1411.15,163.943 1436.33,163.919 1461.51,163.899 1486.68,163.884 1511.86,163.871 1537.04,163.861 1562.21,163.853 1587.39,163.847 1612.56,163.842 1637.74,163.838 1662.92,163.835 1688.09,163.832 1713.27,163.83 1738.45,163.828 1763.62,163.827 1788.8,163.826 1813.98,163.825 1839.15,163.824 1864.33,163.824 1889.51,163.823 1914.68,163.823 1939.86,163.823 1965.04,163.823 1990.21,163.823 2015.39,163.822 2040.57,163.822 2065.74,163.822 2090.92,163.822 2116.1,163.822 2141.27,163.822 2166.45,163.822 2191.63,163.822 2216.8,163.822 2241.98,163.822 2267.16,163.822 2292.33,163.822 "/>
<path clip-path="url(#clip950)" d="M1943.44 1377.32 L2281.59 1377.32 L2281.59 1273.64 L1943.44 1273.64  Z" fill="#ffffff" fill-rule="evenodd" fill-opacity="1"/>
<polyline clip-path="url(#clip950)" style="stroke:#000000; stroke-linecap:round; stroke-linejoin:round; stroke-width:4; stroke-opacity:1; fill:none" points="1943.44,1377.32 2281.59,1377.32 2281.59,1273.64 1943.44,1273.64 1943.44,1377.32 "/>
<polyline clip-path="url(#clip950)" style="stroke:#009af9; stroke-linecap:round; stroke-linejoin:round; stroke-width:4; stroke-opacity:1; fill:none" points="1967.16,1325.48 2109.49,1325.48 "/>
<path clip-path="url(#clip950)" d="M2133.22 1352.62 L2133.22 1316.83 L2137.48 1316.83 L2137.48 1332.94 Q2137.48 1336.3 2139.07 1338.01 Q2140.67 1339.72 2143.79 1339.72 Q2147.22 1339.72 2148.93 1337.78 Q2150.67 1335.83 2150.67 1331.95 L2150.67 1316.83 L2154.93 1316.83 L2154.93 1336.78 Q2154.93 1338.17 2155.32 1338.84 Q2155.74 1339.49 2156.6 1339.49 Q2156.8 1339.49 2157.17 1339.38 Q2157.54 1339.24 2158.19 1338.96 L2158.19 1342.38 Q2157.24 1342.92 2156.39 1343.17 Q2155.55 1343.43 2154.74 1343.43 Q2153.15 1343.43 2152.2 1342.52 Q2151.25 1341.62 2150.9 1339.77 Q2149.74 1341.6 2148.05 1342.52 Q2146.39 1343.43 2144.12 1343.43 Q2141.76 1343.43 2140.09 1342.52 Q2138.45 1341.62 2137.48 1339.82 L2137.48 1352.62 L2133.22 1352.62 Z" fill="#000000" fill-rule="nonzero" fill-opacity="1" /><path clip-path="url(#clip950)" d="M2196.23 1313.03 L2196.23 1321.99 L2209.12 1321.99 L2209.12 1325.93 L2196.23 1325.93 L2196.23 1334.88 L2192.34 1334.88 L2192.34 1325.93 L2179.44 1325.93 L2179.44 1321.99 L2192.34 1321.99 L2192.34 1313.03 L2196.23 1313.03 M2179.44 1338.82 L2209.12 1338.82 L2209.12 1342.76 L2179.44 1342.76 L2179.44 1338.82 Z" fill="#000000" fill-rule="nonzero" fill-opacity="1" /><path clip-path="url(#clip950)" d="M2243.72 1320.21 Q2240.21 1320.21 2238.31 1322.76 Q2236.32 1325.42 2236.32 1329.82 Q2236.32 1334.47 2238.28 1337.15 Q2240.28 1339.82 2243.72 1339.82 Q2247.13 1339.82 2249.12 1337.13 Q2251.11 1334.45 2251.11 1329.82 Q2251.11 1325.58 2249.12 1322.76 Q2247.29 1320.21 2243.72 1320.21 M2243.72 1316.83 L2257.87 1316.83 L2257.87 1321.09 L2253.1 1321.09 Q2255.62 1324.7 2255.62 1329.82 Q2255.62 1336.18 2252.45 1339.79 Q2249.28 1343.43 2243.72 1343.43 Q2238.15 1343.43 2235 1339.79 Q2231.83 1336.18 2231.83 1329.82 Q2231.83 1323.4 2235 1319.82 Q2237.61 1316.83 2243.72 1316.83 Z" fill="#000000" fill-rule="nonzero" fill-opacity="1" /></svg>
